<svg xmlns="http://www.w3.org/2000/svg" width="184" height="74" viewBox="0 0 184 74" fill="none">
<path d="M42.4994 46.8232C39.5827 45.7399 36.5827 45.5733 33.8327 46.3233C31.916 46.8233 30.0827 47.8232 28.416 49.0732L27.2493 50.0733L26.916 50.4066L27.666 51.0732C27.7493 51.0732 27.7494 51.1566 27.8327 51.2399C27.9994 51.4066 28.166 51.4899 28.416 51.6566L28.916 51.9899L29.416 51.5732C29.4993 51.4899 29.666 51.3232 29.8327 51.2399C31.3327 49.9899 32.9993 49.1566 34.7493 48.7399C36.9993 48.1566 39.416 48.2399 41.8327 49.1566C43.8327 49.9066 47.916 50.8232 52.8327 48.7399L52.9994 48.6566L53.2494 48.4066C53.2494 48.3233 53.3327 48.3232 53.416 48.2399C53.8327 47.7399 54.2494 47.2399 54.5827 46.6566L56.2494 44.0732L53.5827 45.5732C49.666 47.7399 46.0827 48.1566 42.4994 46.8232Z" fill="#11122C"/>
<path d="M31.0827 37.8233C33.3327 37.2399 35.7494 37.3233 38.166 38.2399C40.8327 39.2399 47.666 40.6566 55.3327 33.7399L56.5827 32.4899L56.666 32.4066L56.9994 32.0733L56.8327 31.6566C56.7493 31.3233 56.5827 30.9066 56.416 30.4899L55.9993 29.3232L55.166 30.1566C55.0827 30.3232 54.916 30.4066 54.7493 30.5732C51.0827 34.3232 45.416 38.1566 38.916 35.8233C35.9993 34.7399 32.9994 34.5733 30.2494 35.3233C27.5827 36.0733 25.2493 37.4899 23.0827 39.4899V39.4066L21.8327 40.7399C21.8327 40.8233 21.7494 40.8233 21.666 40.9066L21.416 41.1566L21.4994 41.4899C21.5827 41.9066 21.7493 42.3232 21.8327 42.7399L22.3327 44.0733L23.166 42.9899C23.2494 42.8233 23.416 42.7399 23.4993 42.5733C25.2493 40.9899 27.666 38.7399 31.0827 37.8233Z" fill="#11122C"/>
<path d="M23 36.3229C24.9167 34.3229 27.0833 33.0729 29.4167 32.4063C31.6667 31.8229 34.0833 31.9063 36.5 32.8229C44 35.5729 50.5 31.0729 53.3334 28.6563L54.4167 27.5729L54.8333 27.2396L54.5 26.7396C54.25 26.4896 54.0834 26.1563 53.8334 25.8229L53.3334 25.1562L52.75 25.7396C52.6667 25.8229 52.5 25.9896 52.4167 26.0729C48.9167 29.4063 43.5 32.8229 37.3333 30.4896C34.4167 29.4063 31.4167 29.2396 28.6667 29.9896C26.9167 30.4896 25.25 31.3229 23.5833 32.4063L21.8333 33.8229C21.6667 33.9896 21.5833 34.0729 21.4167 34.2396L21.25 34.4063V34.6563C21.1667 35.2396 21.1667 35.8229 21.0833 36.3229L21 38.4063L22.4167 36.9063C22.5833 36.7396 22.75 36.4896 23 36.3229Z" fill="#11122C"/>
<path d="M44.9173 52.4895L44.7506 52.9895L44.9173 52.4895C44.6673 52.4062 44.5007 52.3228 44.2507 52.2395C41.334 51.1562 38.334 50.9895 35.584 51.7395C35.0006 51.9062 34.4173 52.0728 33.834 52.3228L31.834 53.2395L31.334 53.4895L33.0007 54.0729C33.5007 54.2395 34.0006 54.4062 34.5006 54.5729L34.7506 54.6562L35.0006 54.5729C35.2506 54.4895 35.5006 54.3228 35.7506 54.3228C35.9173 54.3228 36.084 54.2395 36.2506 54.1562C38.2506 53.6562 40.4173 53.6562 42.7506 54.4062C43.0006 54.4895 43.1673 54.5729 43.4173 54.6562L43.834 54.8229L44.084 54.7395C44.6673 54.5728 45.334 54.4062 45.834 54.1562L48.1673 53.3229L45.7506 52.7395C45.5006 52.6562 45.1673 52.5729 44.9173 52.4895Z" fill="#11122C"/>
<path d="M57.6666 35.2402L56.4166 36.4902C56.25 36.6569 56.0833 36.8236 55.9167 36.9902C52.5 40.2402 47 43.7402 40.8333 41.4069C37.9167 40.3236 34.9167 40.1569 32.1667 40.9069C29.5833 41.6569 27.25 42.9902 25.1667 44.9902L24.0833 46.1569L23.75 46.5736L24.0833 47.0736C24.3333 47.4069 24.5 47.6569 24.6667 47.9902L25.1667 48.7402L25.75 47.9902C25.8333 47.9069 26 47.7402 26.0833 47.6569C28.0833 45.4902 30.25 44.1569 32.75 43.4902C35 42.9069 37.4167 42.9902 39.8333 43.9069C41.9167 44.6569 44.0833 44.9069 46.25 44.6569C50.0833 44.2402 53.9167 42.0736 56.75 39.6569C56.9167 39.4902 57.0833 39.4069 57.25 39.2402L57.5 38.9902V38.7402C57.5 38.2402 57.5833 37.6569 57.5833 37.1569L57.6666 35.2402Z" fill="#11122C"/>
<path d="M25.9993 27.5729L25.7493 27.0729L25.9993 27.5729C26.4993 27.3229 27.0827 27.1562 27.5827 26.9896C29.8327 26.4062 32.2494 26.4896 34.666 27.4062C36.2494 27.9896 37.8327 28.2396 39.5827 28.2396C43.0827 28.2396 46.5827 26.9896 49.8327 24.5729L51.0827 23.5729L51.4993 23.2396L50.7493 22.6562C50.4993 22.4062 50.166 22.1562 49.8327 21.9896L49.3327 21.6562L48.916 21.9896C48.7493 22.0729 48.666 22.2396 48.4993 22.3229C44.0827 25.6562 39.666 26.5729 35.4994 24.9896C32.4994 23.9062 29.4993 23.6562 26.4993 24.5729C26.2493 24.6562 25.9993 24.7396 25.666 24.8229L25.4994 24.9062L25.2493 25.1562C25.2493 25.2396 25.166 25.2396 25.0827 25.3229C24.7494 25.8229 24.3327 26.2396 23.9993 26.7396L22.416 29.1562L24.9994 27.8229C25.416 27.8229 25.7493 27.6563 25.9993 27.5729Z" fill="#11122C"/>
<path d="M32.8327 21.9069L33.0827 21.9902C34.166 22.4069 35.8327 22.8236 37.916 22.8236C40.0827 22.8236 42.166 22.3236 44.2494 21.4902L46.8327 20.2402L45.0827 19.6569C44.5827 19.4902 44.0827 19.3236 43.4993 19.2402H43.2494L42.9994 19.3235C42.7494 19.4069 42.4993 19.5736 42.2493 19.6569C39.7493 20.5736 37.2494 20.7402 34.8327 20.0736C34.5827 19.9902 34.3327 19.9069 34.0827 19.8236L33.8327 19.7402L33.5827 19.8236C33.0827 19.9902 32.5827 20.1569 32.0827 20.4069L30.166 21.2402L32.166 21.8235C32.3327 21.7402 32.5827 21.8236 32.8327 21.9069Z" fill="#11122C"/>
<path d="M72.0674 45.2575H68.2227L74.0808 28.2878H78.7044L84.5543 45.2575H80.7096L76.4589 32.1657H76.3263L72.0674 45.2575ZM71.8271 38.5873H80.9085V41.388H71.8271V38.5873Z" fill="#11122C"/>
<path d="M90.0604 28.2878V45.2575H86.5305V28.2878H90.0604Z" fill="#11122C"/>
<path d="M99.6576 32.5302V35.1818H91.9931V32.5302H99.6576ZM93.7331 29.481H97.263V41.3465C97.263 41.6724 97.3127 41.9266 97.4121 42.1088C97.5115 42.2856 97.6496 42.4099 97.8264 42.4817C98.0087 42.5535 98.2186 42.5894 98.4561 42.5894C98.6219 42.5894 98.7876 42.5756 98.9533 42.548C99.119 42.5149 99.2461 42.49 99.3345 42.4734L99.8896 45.1001C99.7129 45.1553 99.4643 45.2188 99.1439 45.2907C98.8235 45.368 98.434 45.415 97.9756 45.4315C97.1249 45.4647 96.3791 45.3514 95.7383 45.0918C95.1031 44.8322 94.6087 44.4289 94.2551 43.882C93.9016 43.3352 93.7276 42.6447 93.7331 41.8105V29.481Z" fill="#11122C"/>
<path d="M106.607 44.3378V32.6048H109.574V44.3378H106.607ZM102.224 39.9545V36.9881H113.957V39.9545H102.224Z" fill="#11122C"/>
<path d="M126.701 33.1683C126.635 32.4999 126.35 31.9806 125.848 31.6105C125.345 31.2404 124.663 31.0553 123.801 31.0553C123.215 31.0553 122.721 31.1382 122.318 31.3039C121.914 31.4641 121.605 31.6878 121.39 31.9751C121.18 32.2623 121.075 32.5882 121.075 32.9528C121.064 33.2566 121.127 33.5218 121.265 33.7483C121.409 33.9748 121.605 34.1709 121.854 34.3366C122.102 34.4968 122.39 34.6376 122.715 34.7592C123.041 34.8752 123.389 34.9746 123.759 35.0575L125.284 35.4221C126.024 35.5878 126.704 35.8087 127.322 36.0849C127.941 36.3611 128.477 36.7009 128.93 37.1041C129.383 37.5074 129.734 37.9824 129.982 38.5293C130.236 39.0762 130.366 39.7031 130.372 40.4102C130.366 41.4487 130.101 42.3491 129.576 43.1114C129.057 43.8682 128.306 44.4565 127.322 44.8764C126.345 45.2907 125.165 45.4978 123.784 45.4978C122.414 45.4978 121.221 45.2879 120.205 44.8681C119.194 44.4483 118.404 43.8268 117.835 43.0037C117.272 42.1751 116.976 41.1504 116.948 39.9296H120.42C120.459 40.4986 120.622 40.9737 120.909 41.3548C121.202 41.7304 121.591 42.0149 122.077 42.2083C122.569 42.3961 123.124 42.49 123.743 42.49C124.351 42.49 124.878 42.4016 125.326 42.2248C125.778 42.0481 126.129 41.8023 126.378 41.4874C126.626 41.1725 126.751 40.8107 126.751 40.4019C126.751 40.0208 126.637 39.7004 126.411 39.4408C126.19 39.1811 125.864 38.9602 125.433 38.7779C125.008 38.5956 124.486 38.4299 123.867 38.2807L122.019 37.8167C120.589 37.4687 119.459 36.9246 118.63 36.1844C117.802 35.4441 117.39 34.4471 117.396 33.1931C117.39 32.1657 117.664 31.268 118.216 30.5002C118.774 29.7323 119.539 29.133 120.511 28.7021C121.484 28.2712 122.588 28.0558 123.826 28.0558C125.085 28.0558 126.184 28.2712 127.124 28.7021C128.068 29.133 128.803 29.7323 129.328 30.5002C129.852 31.268 130.123 32.1574 130.14 33.1683H126.701Z" fill="#11122C"/>
<path d="M136.249 37.8996V45.2575H132.719V28.2878H136.149V34.7757H136.298C136.585 34.0245 137.049 33.4362 137.69 33.0108C138.331 32.58 139.135 32.3645 140.102 32.3645C140.985 32.3645 141.756 32.5579 142.413 32.9445C143.076 33.3257 143.59 33.8753 143.954 34.5935C144.325 35.3061 144.507 36.1595 144.501 37.1538V45.2575H140.972V37.7836C140.977 36.9992 140.778 36.3888 140.375 35.9524C139.977 35.516 139.419 35.2978 138.701 35.2978C138.221 35.2978 137.795 35.4 137.425 35.6043C137.061 35.8087 136.773 36.107 136.563 36.4992C136.359 36.8859 136.254 37.3527 136.249 37.8996Z" fill="#11122C"/>
<path d="M147.279 45.2575V32.5302H150.809V45.2575H147.279ZM149.052 30.8896C148.528 30.8896 148.077 30.7156 147.702 30.3676C147.332 30.0141 147.147 29.5915 147.147 29.0998C147.147 28.6137 147.332 28.1967 147.702 27.8487C148.077 27.4951 148.528 27.3184 149.052 27.3184C149.577 27.3184 150.025 27.4951 150.395 27.8487C150.77 28.1967 150.958 28.6137 150.958 29.0998C150.958 29.5915 150.77 30.0141 150.395 30.3676C150.025 30.7156 149.577 30.8896 149.052 30.8896Z" fill="#11122C"/>
<path d="M161.742 32.5302V35.1818H152.626V32.5302H161.742ZM154.424 45.2575V31.6105C154.424 30.688 154.603 29.9229 154.962 29.3153C155.327 28.7076 155.824 28.2519 156.454 27.9481C157.084 27.6443 157.799 27.4924 158.6 27.4924C159.141 27.4924 159.636 27.5338 160.083 27.6167C160.536 27.6995 160.873 27.7741 161.094 27.8404L160.464 30.4919C160.326 30.4477 160.155 30.4063 159.951 30.3676C159.752 30.3289 159.547 30.3096 159.337 30.3096C158.818 30.3096 158.456 30.4311 158.252 30.6742C158.048 30.9117 157.945 31.2459 157.945 31.6768V45.2575H154.424Z" fill="#11122C"/>
<path d="M169.407 32.5302V35.1818H161.742V32.5302H169.407ZM163.482 29.481H167.012V41.3465C167.012 41.6724 167.062 41.9266 167.161 42.1088C167.261 42.2856 167.399 42.4099 167.576 42.4817C167.758 42.5535 167.968 42.5894 168.205 42.5894C168.371 42.5894 168.537 42.5756 168.703 42.548C168.868 42.5149 168.995 42.49 169.084 42.4734L169.639 45.1001C169.462 45.1553 169.214 45.2188 168.893 45.2907C168.573 45.368 168.183 45.415 167.725 45.4315C166.874 45.4647 166.128 45.3514 165.488 45.0918C164.852 44.8322 164.358 44.4289 164.004 43.882C163.651 43.3352 163.477 42.6447 163.482 41.8105V29.481Z" fill="#11122C"/>
</svg>