<svg xmlns="http://www.w3.org/2000/svg" width="184" height="74" viewBox="0 0 184 74" fill="none">
<path d="M39.3574 18.667H25.3093L14 29.9762V44.0244L25.3093 55.3337H39.3574L50.6667 44.0244V29.9762L39.3574 18.667ZM27.253 44.2011L20.008 36.9561L27.253 29.7112C29.992 26.9722 34.498 26.9722 37.237 29.7112L44.4819 36.9561L37.237 44.2011C34.498 46.9401 30.0803 46.9401 27.253 44.2011Z" fill="#0A0915"/>
<path d="M66.7836 45.5338C69.0336 45.5338 70.8836 44.3838 71.4586 42.6588V45.3338H74.7836V38.5838C74.7836 37.0588 73.5836 35.7588 71.9586 35.7588H67.2086V38.5838H70.5836C71.0086 38.5838 71.2836 38.8588 71.2836 39.2838C71.2836 40.9088 69.1336 42.4838 66.9586 42.4838C64.0586 42.4838 61.7586 40.2088 61.7586 36.5838C61.7586 32.9588 64.0586 30.8588 67.0336 30.8588C69.2836 30.8588 70.8336 32.0838 71.1086 33.9588H74.8336C74.6086 30.2088 71.4586 27.6338 67.0586 27.6338C62.4336 27.6338 58.1836 30.6088 58.1836 36.5838C58.1836 42.5588 62.3086 45.5338 66.7836 45.5338Z" fill="#0A0915"/>
<path d="M76.2109 45.3338H79.6859V27.2588H76.2109V45.3338Z" fill="#0A0915"/>
<path d="M87.1818 45.5338C91.0568 45.5338 93.8318 42.7838 93.8318 39.0338C93.8318 35.2838 91.0568 32.5338 87.1818 32.5338C83.3068 32.5338 80.5318 35.2838 80.5318 39.0338C80.5318 42.7838 83.3068 45.5338 87.1818 45.5338ZM87.1818 42.5338C85.3068 42.5338 84.0318 41.1088 84.0318 39.0338C84.0318 36.9338 85.3068 35.5088 87.1818 35.5088C89.0568 35.5088 90.3318 36.9338 90.3318 39.0338C90.3318 41.1088 89.0568 42.5338 87.1818 42.5338Z" fill="#0A0915"/>
<path d="M101.608 45.5338C105.333 45.5338 107.558 42.9588 107.558 39.0338C107.558 35.1088 105.333 32.5338 101.658 32.5338C100.083 32.5338 98.8576 33.1338 98.1576 34.0588V27.2588H94.6826V45.3338H98.1576V43.9588C98.8576 44.9338 100.158 45.5338 101.608 45.5338ZM101.058 42.5338C99.1826 42.5338 97.9576 41.1338 97.9576 39.0338C97.9576 36.9088 99.1826 35.5088 101.058 35.5088C102.883 35.5088 104.133 36.9088 104.133 39.0338C104.133 41.1338 102.883 42.5338 101.058 42.5338Z" fill="#0A0915"/>
<path d="M113.375 32.5338C109.925 32.5338 107.875 34.5588 107.725 37.0838H110.825C110.875 36.0338 111.65 35.0838 113.175 35.0838C114.6 35.0838 115.425 35.8088 115.425 36.8588C115.425 37.3838 115.1 37.7838 114.475 37.7838H112.35C109.6 37.7838 107.75 39.2838 107.75 41.7588C107.75 43.9088 109.425 45.5338 111.875 45.5338C113.6 45.5338 115 44.7588 115.425 43.5838V45.3338H118.875V37.2338C118.875 34.3838 116.55 32.5338 113.375 32.5338ZM112.75 43.0088C111.775 43.0088 111.075 42.4338 111.075 41.6088C111.075 40.6338 111.825 39.9838 112.875 39.9838H115.425V40.1588C115.425 41.7588 114.45 43.0088 112.75 43.0088Z" fill="#0A0915"/>
<path d="M120.21 45.3338H123.685V27.2588H120.21V45.3338Z" fill="#0A0915"/>
<path d="M125.531 45.3338H132.681C136.381 45.3338 138.931 43.4338 138.931 40.1088C138.931 37.8088 137.581 36.4088 135.981 35.7838C137.006 35.2338 138.031 33.9838 138.031 32.3338C138.031 29.4088 135.656 27.8338 132.481 27.8338H125.531V45.3338ZM129.231 34.5088V30.8088H132.131C133.806 30.8088 134.556 31.4838 134.556 32.6588C134.556 33.8338 133.806 34.5088 132.206 34.5088H129.231ZM129.231 42.0838V37.6838H132.356C134.431 37.6838 135.356 38.4838 135.356 39.9088C135.356 41.3338 134.431 42.0838 132.356 42.0838H129.231Z" fill="#0A0915"/>
<path d="M144.976 32.5338C141.526 32.5338 139.476 34.5588 139.326 37.0838H142.426C142.476 36.0338 143.251 35.0838 144.776 35.0838C146.201 35.0838 147.026 35.8088 147.026 36.8588C147.026 37.3838 146.701 37.7838 146.076 37.7838H143.951C141.201 37.7838 139.351 39.2838 139.351 41.7588C139.351 43.9088 141.026 45.5338 143.476 45.5338C145.201 45.5338 146.601 44.7588 147.026 43.5838V45.3338H150.476V37.2338C150.476 34.3838 148.151 32.5338 144.976 32.5338ZM144.351 43.0088C143.376 43.0088 142.676 42.4338 142.676 41.6088C142.676 40.6338 143.426 39.9838 144.476 39.9838H147.026V40.1588C147.026 41.7588 146.051 43.0088 144.351 43.0088Z" fill="#0A0915"/>
<path d="M151.612 45.3338H155.112V38.4338C155.112 36.8088 156.187 35.6338 157.712 35.6338C159.162 35.6338 160.137 36.7338 160.137 38.2588V45.3338H163.637V37.4838C163.637 34.5838 161.787 32.5338 158.937 32.5338C157.212 32.5338 155.812 33.2588 155.112 34.4838V32.7338H151.612V45.3338Z" fill="#0A0915"/>
<path d="M173.612 45.3338H177.812L172.387 37.6838L177.412 32.7338H173.012L168.637 37.0338V27.2588H165.137V45.3338H168.637V41.3838L170.037 40.0088L173.612 45.3338Z" fill="#0A0915"/>
</svg>