<svg xmlns="http://www.w3.org/2000/svg" width="184" height="74" viewBox="0 0 184 74" fill="none">
<g clip-path="url(#clip0_38965_2049)">
<path opacity="0.8" d="M23.1111 43.1114C29.8613 43.1114 35.3333 37.6394 35.3333 30.8892C35.3333 24.1391 29.8613 18.667 23.1111 18.667H6V43.1114H23.1111Z" fill="#11122C"/>
<path opacity="0.6" d="M6 18.667L35.3333 55.3337H15.7778L6 43.1114V18.667Z" fill="#11122C"/>
<path d="M25.3864 42.9C24.6492 43.0388 23.8886 43.1114 23.1111 43.1114H6V18.667L25.3864 42.9Z" fill="#11122C"/>
<path d="M55.4498 45.5671C53.7387 45.5671 52.2687 45.2248 51.0398 44.5404C49.8264 43.8404 48.8931 42.8604 48.2398 41.6004C47.5864 40.3248 47.2598 38.8237 47.2598 37.0971C47.2598 35.3704 47.5864 33.8771 48.2398 32.6171C48.8931 31.3571 49.8264 30.3848 51.0398 29.7004C52.2687 29.0004 53.7387 28.6504 55.4498 28.6504C56.5542 28.6504 57.5964 28.8215 58.5764 29.1637C59.572 29.5059 60.3887 29.9959 61.0264 30.6337L60.0464 33.0137C59.3464 32.4226 58.6309 31.9948 57.8998 31.7304C57.1687 31.4504 56.3831 31.3104 55.5431 31.3104C53.8787 31.3104 52.6109 31.8159 51.7398 32.8271C50.8687 33.8226 50.4331 35.2459 50.4331 37.0971C50.4331 38.9482 50.8687 40.3793 51.7398 41.3904C52.6109 42.4015 53.8787 42.9071 55.5431 42.9071C56.3831 42.9071 57.1687 42.7748 57.8998 42.5104C58.6309 42.2304 59.3464 41.7948 60.0464 41.2037L61.0264 43.5837C60.3887 44.2059 59.572 44.6959 58.5764 45.0537C57.5964 45.3959 56.5542 45.5671 55.4498 45.5671Z" fill="#11122C"/>
<path d="M67.736 45.5671C66.5538 45.5671 65.5272 45.3259 64.656 44.8437C63.7849 44.3615 63.1083 43.6771 62.626 42.7904C62.1438 41.8882 61.9027 40.8304 61.9027 39.6171C61.9027 38.4037 62.1438 37.3537 62.626 36.4671C63.1083 35.5804 63.7849 34.8959 64.656 34.4137C65.5272 33.9315 66.5538 33.6904 67.736 33.6904C68.9183 33.6904 69.9449 33.9315 70.816 34.4137C71.6872 34.8959 72.3638 35.5804 72.846 36.4671C73.3283 37.3537 73.5694 38.4037 73.5694 39.6171C73.5694 40.8304 73.3283 41.8882 72.846 42.7904C72.3638 43.6771 71.6872 44.3615 70.816 44.8437C69.9449 45.3259 68.9183 45.5671 67.736 45.5671ZM67.736 43.3504C68.6072 43.3504 69.3071 43.0393 69.836 42.4171C70.3649 41.7793 70.6294 40.8459 70.6294 39.6171C70.6294 38.3726 70.3649 37.4471 69.836 36.8404C69.3071 36.2182 68.6072 35.9071 67.736 35.9071C66.8649 35.9071 66.1649 36.2182 65.636 36.8404C65.1072 37.4471 64.8427 38.3726 64.8427 39.6171C64.8427 40.8459 65.1072 41.7793 65.636 42.4171C66.1649 43.0393 66.8649 43.3504 67.736 43.3504Z" fill="#11122C"/>
<path d="M76.0234 45.3337V33.9237H78.87V35.6737C79.2123 35.0515 79.6867 34.5693 80.2934 34.2271C80.9 33.8693 81.6 33.6904 82.3934 33.6904C84.1045 33.6904 85.2245 34.4371 85.7534 35.9304C86.1112 35.2304 86.6245 34.6859 87.2934 34.2971C87.9623 33.8926 88.7245 33.6904 89.58 33.6904C92.1467 33.6904 93.43 35.2537 93.43 38.3804V45.3337H90.5134V38.4971C90.5134 37.6259 90.3656 36.9882 90.07 36.5837C89.7901 36.1793 89.3078 35.9771 88.6234 35.9771C87.8612 35.9771 87.2623 36.2493 86.8267 36.7937C86.3912 37.3226 86.1734 38.0615 86.1734 39.0104V45.3337H83.2567V38.4971C83.2567 37.6259 83.1089 36.9882 82.8134 36.5837C82.5334 36.1793 82.0589 35.9771 81.39 35.9771C80.6278 35.9771 80.0289 36.2493 79.5934 36.7937C79.1578 37.3226 78.94 38.0615 78.94 39.0104V45.3337H76.0234Z" fill="#11122C"/>
<path d="M96.4856 45.3337V33.9237H99.3323V35.6737C99.6745 35.0515 100.149 34.5693 100.756 34.2271C101.362 33.8693 102.062 33.6904 102.856 33.6904C104.567 33.6904 105.687 34.4371 106.216 35.9304C106.573 35.2304 107.087 34.6859 107.756 34.2971C108.425 33.8926 109.187 33.6904 110.042 33.6904C112.609 33.6904 113.892 35.2537 113.892 38.3804V45.3337H110.976V38.4971C110.976 37.6259 110.828 36.9882 110.532 36.5837C110.252 36.1793 109.77 35.9771 109.086 35.9771C108.323 35.9771 107.725 36.2493 107.289 36.7937C106.853 37.3226 106.636 38.0615 106.636 39.0104V45.3337H103.719V38.4971C103.719 37.6259 103.571 36.9882 103.276 36.5837C102.996 36.1793 102.521 35.9771 101.852 35.9771C101.09 35.9771 100.491 36.2493 100.056 36.7937C99.6201 37.3226 99.4023 38.0615 99.4023 39.0104V45.3337H96.4856Z" fill="#11122C"/>
<path d="M120.658 45.5671C119.833 45.5671 119.095 45.4115 118.441 45.1004C117.803 44.7737 117.298 44.3382 116.925 43.7937C116.567 43.2493 116.388 42.6348 116.388 41.9504C116.388 41.1104 116.606 40.4493 117.041 39.9671C117.477 39.4693 118.185 39.1115 119.165 38.8937C120.145 38.6759 121.459 38.5671 123.108 38.5671H123.925V38.0771C123.925 37.2993 123.753 36.7393 123.411 36.3971C123.069 36.0548 122.493 35.8837 121.685 35.8837C121.047 35.8837 120.393 35.9848 119.725 36.1871C119.056 36.3737 118.379 36.6693 117.695 37.0737L116.855 35.0904C117.259 34.8104 117.733 34.5693 118.278 34.3671C118.838 34.1493 119.421 33.9859 120.028 33.8771C120.65 33.7526 121.233 33.6904 121.778 33.6904C123.442 33.6904 124.679 34.0793 125.488 34.8571C126.297 35.6193 126.701 36.8093 126.701 38.4271V45.3337H123.971V43.5137C123.707 44.1515 123.287 44.6571 122.711 45.0304C122.136 45.3882 121.451 45.5671 120.658 45.5671ZM121.265 43.5604C122.027 43.5604 122.657 43.2959 123.155 42.7671C123.668 42.2382 123.925 41.5693 123.925 40.7604V40.2471H123.131C121.669 40.2471 120.65 40.3637 120.075 40.5971C119.515 40.8148 119.235 41.2193 119.235 41.8104C119.235 42.3237 119.413 42.7437 119.771 43.0704C120.129 43.3971 120.627 43.5604 121.265 43.5604Z" fill="#11122C"/>
<path d="M129.662 45.3337V33.9237H132.508V35.6971C132.897 35.0437 133.418 34.5459 134.072 34.2037C134.74 33.8615 135.487 33.6904 136.312 33.6904C139.003 33.6904 140.348 35.2537 140.348 38.3804V45.3337H137.432V38.5204C137.432 37.6337 137.26 36.9882 136.918 36.5837C136.592 36.1793 136.078 35.9771 135.378 35.9771C134.523 35.9771 133.838 36.2493 133.325 36.7937C132.827 37.3226 132.578 38.0304 132.578 38.9171V45.3337H129.662Z" fill="#11122C"/>
<path d="M147.697 45.5671C146.702 45.5671 145.823 45.3259 145.061 44.8437C144.314 44.3615 143.731 43.6771 143.311 42.7904C142.891 41.8882 142.681 40.8304 142.681 39.6171C142.681 38.3882 142.891 37.3382 143.311 36.4671C143.731 35.5804 144.314 34.8959 145.061 34.4137C145.823 33.9315 146.702 33.6904 147.697 33.6904C148.506 33.6904 149.237 33.8693 149.891 34.2271C150.544 34.5848 151.034 35.0593 151.361 35.6504V28.8837H154.277V45.3337H151.431V43.4437C151.12 44.0971 150.63 44.6182 149.961 45.0071C149.292 45.3804 148.537 45.5671 147.697 45.5671ZM148.514 43.3504C149.385 43.3504 150.085 43.0393 150.614 42.4171C151.143 41.7793 151.407 40.8459 151.407 39.6171C151.407 38.3726 151.143 37.4471 150.614 36.8404C150.085 36.2182 149.385 35.9071 148.514 35.9071C147.643 35.9071 146.943 36.2182 146.414 36.8404C145.885 37.4471 145.621 38.3726 145.621 39.6171C145.621 40.8459 145.885 41.7793 146.414 42.4171C146.943 43.0393 147.643 43.3504 148.514 43.3504Z" fill="#11122C"/>
<path d="M161.712 44.4004V39.6637H157.092V37.6104H161.712V33.0137H163.858V37.6104H168.478V39.6637H163.858V44.4004H161.712Z" fill="#11122C"/>
<path d="M171.572 45.3337V28.8837H178.712C180.517 28.8837 181.909 29.3193 182.889 30.1904C183.869 31.0459 184.359 32.2515 184.359 33.8071C184.359 35.0359 184.04 36.0548 183.402 36.8637C182.765 37.6571 181.847 38.1937 180.649 38.4737C181.442 38.7226 182.096 39.3215 182.609 40.2704L185.362 45.3337H182.072L179.226 40.0837C178.946 39.5704 178.611 39.2204 178.222 39.0337C177.849 38.8471 177.367 38.7537 176.776 38.7537H174.559V45.3337H171.572ZM174.559 36.5371H178.199C180.377 36.5371 181.466 35.6504 181.466 33.8771C181.466 32.1193 180.377 31.2404 178.199 31.2404H174.559V36.5371Z" fill="#11122C"/>
</g>
<defs>
<clipPath id="clip0_38965_2049">
<rect width="184" height="74" fill="white"/>
</clipPath>
</defs>
</svg>