<svg xmlns="http://www.w3.org/2000/svg" width="184" height="74" viewBox="0 0 184 74" fill="none">
<path d="M35.315 37.2084C40.1157 34.9124 43.8729 31.0161 46.0297 26.1458C44.6382 24.6847 42.8292 23.6411 40.8811 23.0149L39.8374 22.667C39.7679 22.8061 39.6983 23.0149 39.6983 23.154C38.0285 27.8852 34.6192 31.7119 30.0272 33.8688C26.8267 35.3994 24.4611 38.1825 23.3479 41.5221L23 42.5658C23.1392 42.6354 23.3479 42.7049 23.487 42.7049C24.809 43.192 26.1309 43.8182 27.3833 44.5835C29.1227 41.4526 31.9058 38.8087 35.315 37.2084Z" fill="#11122C"/>
<path opacity="0.8" d="M55.4912 37.4863C52.9168 41.3826 49.3685 44.5135 44.9852 46.6008C41.4368 48.2706 38.7233 51.4016 37.4709 55.1587L37.123 56.3415C38.445 57.5243 40.0452 58.4288 41.7846 58.9854L42.8283 59.3333C42.8979 59.1941 42.9674 58.9854 42.9674 58.8462C44.6373 54.115 48.0465 50.2884 52.6385 48.1315C55.839 46.6008 58.2742 43.8178 59.3178 40.4781L59.6657 39.4345C58.2046 39.017 56.8131 38.3212 55.4912 37.4863Z" fill="#11122C"/>
<path opacity="0.9" d="M34.3416 52.7236C36.081 48.549 39.2815 45.1398 43.3865 43.1916C47.1436 41.3827 50.2745 38.5996 52.4314 35.1904C50.8311 33.6597 49.5092 31.9203 48.5351 29.833C45.9608 34.5642 41.9254 38.3909 36.9855 40.7565C34.1329 42.0784 31.8368 44.3744 30.4453 47.1575C31.976 48.6186 33.2284 50.4276 34.2024 52.4453C34.2024 52.4453 34.272 52.5844 34.3416 52.7236Z" fill="#11122C"/>
<path d="M67.959 49.3338H79.684V46.0838H71.734V31.8338H67.959V49.3338Z" fill="#11122C"/>
<path d="M91.9338 36.7338H88.4338V43.6338C88.4338 45.2338 87.3588 46.4338 85.8338 46.4338C84.4088 46.4338 83.4088 45.3338 83.4088 43.8088V36.7338H79.9338V44.5838C79.9338 47.4588 81.7838 49.5338 84.6088 49.5338C86.3338 49.5338 87.7338 48.7838 88.4338 47.5838V49.3338H91.9338V36.7338Z" fill="#11122C"/>
<path d="M93.234 49.3338H96.734V42.1838C96.734 40.5588 97.659 39.4838 99.109 39.4838C100.459 39.4838 101.309 40.5588 101.309 42.1838V49.3338H104.809V42.1838C104.809 40.5588 105.734 39.4838 107.184 39.4838C108.534 39.4838 109.409 40.5588 109.409 42.1838V49.3338H112.884V41.0838C112.884 38.5588 111.109 36.5338 108.359 36.5338C106.334 36.5338 104.759 37.6088 104.159 38.8338C103.559 37.3338 102.284 36.5338 100.309 36.5338C98.609 36.5338 97.409 37.3588 96.734 38.5088V36.7338H93.234V49.3338Z" fill="#11122C"/>
<path d="M114.076 31.2588V34.9338H117.776V31.2588H114.076ZM114.176 49.3338H117.676V36.7338H114.176V49.3338Z" fill="#11122C"/>
<path d="M118.981 49.3338H122.481V42.4338C122.481 40.8088 123.556 39.6338 125.081 39.6338C126.531 39.6338 127.506 40.7338 127.506 42.2588V49.3338H131.006V41.4838C131.006 38.5838 129.156 36.5338 126.306 36.5338C124.581 36.5338 123.181 37.2588 122.481 38.4838V36.7338H118.981V49.3338Z" fill="#11122C"/>
<path d="M138.306 49.5338C142.181 49.5338 144.956 46.7838 144.956 43.0338C144.956 39.2838 142.181 36.5338 138.306 36.5338C134.431 36.5338 131.656 39.2838 131.656 43.0338C131.656 46.7838 134.431 49.5338 138.306 49.5338ZM138.306 46.5338C136.431 46.5338 135.156 45.1088 135.156 43.0338C135.156 40.9338 136.431 39.5088 138.306 39.5088C140.181 39.5088 141.456 40.9338 141.456 43.0338C141.456 45.1088 140.181 46.5338 138.306 46.5338Z" fill="#11122C"/>
<path d="M157.632 36.7338H154.132V43.6338C154.132 45.2338 153.057 46.4338 151.532 46.4338C150.107 46.4338 149.107 45.3338 149.107 43.8088V36.7338H145.632V44.5838C145.632 47.4588 147.482 49.5338 150.307 49.5338C152.032 49.5338 153.432 48.7838 154.132 47.5838V49.3338H157.632V36.7338Z" fill="#11122C"/>
<path d="M163.532 49.5338C166.482 49.5338 168.432 47.9588 168.432 45.5588C168.432 39.8588 161.532 42.7838 161.532 40.2088C161.532 39.4088 162.207 38.9838 163.182 38.9838C164.132 38.9838 165.107 39.5588 165.257 40.6338H168.282C168.157 38.1588 166.107 36.5338 163.082 36.5338C160.507 36.5338 158.582 38.1088 158.582 40.3338C158.582 45.6338 165.357 43.1088 165.357 45.6838C165.357 46.3838 164.607 46.9088 163.532 46.9088C162.232 46.9088 161.357 46.2088 161.232 45.0838H158.232C158.357 47.8088 160.457 49.5338 163.532 49.5338Z" fill="#11122C"/>
</svg>