<svg xmlns="http://www.w3.org/2000/svg" width="184" height="74" viewBox="0 0 184 74" fill="none">
<g clip-path="url(#clip0_38965_2039)">
<path d="M42.7237 20.4347L39.2064 19.4922L36.2423 30.5544L33.5662 20.5674L30.0488 21.5098L32.9401 32.3001L25.7386 25.0986L23.1637 27.6735L31.0629 35.5727L21.2257 32.9368L20.2832 36.4542L31.0316 39.3342C30.9085 38.8034 30.8434 38.2504 30.8434 37.6821C30.8434 33.6599 34.104 30.3992 38.1263 30.3992C42.1485 30.3992 45.4092 33.6599 45.4092 37.6821C45.4092 38.2467 45.3449 38.7964 45.2234 39.324L54.9916 41.9414L55.934 38.4241L45.143 35.5326L54.9808 32.8965L54.0383 29.3792L43.2476 32.2705L50.4492 25.069L47.8743 22.4941L40.0847 30.2838L42.7237 20.4347Z" fill="#11122C"/>
<path d="M45.2131 39.365C44.9115 40.6399 44.2748 41.7852 43.4013 42.7029L50.478 49.7796L53.0528 47.2047L45.2131 39.365Z" fill="#11122C"/>
<path d="M43.3298 42.7769C42.4457 43.6798 41.3285 44.3537 40.0755 44.701L42.6506 54.3112L46.1679 53.3687L43.3298 42.7769Z" fill="#11122C"/>
<path d="M39.9442 44.7361C39.3629 44.8856 38.7536 44.965 38.1257 44.965C37.453 44.965 36.8016 44.8738 36.1832 44.703L33.6058 54.322L37.1231 55.2645L39.9442 44.7361Z" fill="#11122C"/>
<path d="M36.0588 44.6676C34.825 44.3031 33.7276 43.6206 32.8615 42.715L25.7675 49.8091L28.3423 52.384L36.0588 44.6676Z" fill="#11122C"/>
<path d="M32.8031 42.6523C31.9519 41.741 31.3319 40.611 31.0367 39.3557L21.2366 41.9817L22.179 45.499L32.8031 42.6523Z" fill="#11122C"/>
</g>
<path d="M77.0996 27.7578V40.4328L68.9746 27.7578H65.7246V45.2578H68.9746V32.6828L77.0996 45.2578H80.3496V27.7578H77.0996Z" fill="#11122C"/>
<path d="M81.8141 31.0328H85.1641V27.7578H81.8141V31.0328ZM81.8641 45.2578V32.7578H85.1141V45.2578H81.8641Z" fill="#11122C"/>
<path d="M99.0975 39.0078C99.0975 34.6828 96.0225 32.6328 92.7725 32.6078C89.4975 32.5828 86.4725 34.6828 86.4725 39.0078C86.4725 43.3328 89.4975 45.4328 92.7725 45.4078C95.7475 45.3828 97.7975 44.0078 98.7475 41.7328L96.2225 40.6828C95.4475 42.2328 94.2225 42.7828 92.7725 42.8078C91.5225 42.8328 90.0975 42.2328 89.7975 40.0078H99.0225C99.0725 39.6828 99.0975 39.3578 99.0975 39.0078ZM92.7725 35.1828C94.0225 35.2078 95.2975 35.8828 95.6975 37.6828H89.8475C90.2725 35.8578 91.5475 35.1578 92.7725 35.1828Z" fill="#11122C"/>
<path d="M106.608 35.0828V32.6078H104.558V29.2578L101.308 30.2578V32.6078H99.2584V35.0828H101.308V41.5578C101.308 44.0078 101.508 45.2578 105.308 45.2578H106.183V42.4078H105.308C104.708 42.4078 104.558 42.3078 104.558 41.5578V35.0828H106.608Z" fill="#11122C"/>
<path d="M111.438 42.5328L118.338 35.4828V32.7578H107.988V35.4828H114.688L107.788 42.5328V45.2578H118.413V42.5328H111.438Z" fill="#11122C"/>
<path d="M119.578 41.7328L122.853 41.2328C123.078 42.4828 124.553 42.9578 125.453 42.9578C126.378 42.9578 127.978 42.7578 127.978 41.2578C127.978 38.3328 119.953 41.9828 119.953 36.3828C119.953 32.7828 124.128 32.5828 125.453 32.5828C126.703 32.5828 130.328 32.7828 131.078 35.6828L127.978 36.3328C127.703 35.0078 126.303 34.7578 125.553 34.7578C124.803 34.7578 123.203 34.9328 123.203 36.3828C123.203 39.2828 131.228 35.5828 131.228 41.2578C131.228 45.0828 126.828 45.4078 125.453 45.4078C124.203 45.4078 120.228 45.0828 119.578 41.7328Z" fill="#11122C"/>
<path d="M135.45 39.0078C135.45 42.0578 137.075 42.9828 138.775 42.9578C140.3 42.9328 141.35 42.3078 141.975 40.5578L144.65 41.8578C143.675 44.4078 141.3 45.3828 138.775 45.4078C135.5 45.4328 132.2 43.3328 132.2 39.0078C132.2 34.6828 135.5 32.5828 138.775 32.6078C141.3 32.6328 143.675 33.6078 144.65 36.1578L141.975 37.4578C141.35 35.7078 140.3 35.0828 138.775 35.0578C137.075 35.0328 135.45 35.9578 135.45 39.0078Z" fill="#11122C"/>
<path d="M153.375 32.5578C151.7 32.5578 150.175 33.4328 149.2 35.3078V27.7578H145.95V45.2578H149.2V40.8328C149.2 35.1078 151.575 34.6328 152.45 34.6328C153.85 34.6328 154.05 36.0828 154.05 38.2078V45.2578H157.3V38.2078C157.3 35.5578 156.875 32.5578 153.375 32.5578Z" fill="#11122C"/>
<path d="M171.021 39.0078C171.021 34.6828 167.946 32.6328 164.696 32.6078C161.421 32.5828 158.396 34.6828 158.396 39.0078C158.396 43.3328 161.421 45.4328 164.696 45.4078C167.671 45.3828 169.721 44.0078 170.671 41.7328L168.146 40.6828C167.371 42.2328 166.146 42.7828 164.696 42.8078C163.446 42.8328 162.021 42.2328 161.721 40.0078H170.946C170.996 39.6828 171.021 39.3578 171.021 39.0078ZM164.696 35.1828C165.946 35.2078 167.221 35.8828 167.621 37.6828H161.771C162.196 35.8578 163.471 35.1578 164.696 35.1828Z" fill="#11122C"/>
<defs>
<clipPath id="clip0_38965_2039">
<rect width="36.6667" height="36.6667" fill="white" transform="translate(20 18.667)"/>
</clipPath>
</defs>
</svg>