<svg xmlns="http://www.w3.org/2000/svg" width="184" height="74" viewBox="0 0 184 74" fill="none">
<path d="M22.8603 20.738L27.1507 36.75V19.146C27.4909 19.0667 27.8348 18.9967 28.182 18.9366V36.7516L33.0076 18.7422C33.3553 18.7737 33.7003 18.8149 34.0422 18.8655L29.1777 37.02L38.847 20.2722C39.162 20.4139 39.4723 20.5643 39.7775 20.723L30.0721 37.5332L43.9278 23.6775C44.1776 23.9138 44.4208 24.1569 44.657 24.4068L30.7993 38.2645L47.6115 28.5579C47.7702 28.8632 47.9205 29.1735 48.0622 29.4885L31.3185 39.1555L49.4681 34.2923C49.5187 34.6342 49.5599 34.9792 49.5913 35.3269L31.5821 40.1525L49.3967 40.1525C49.3365 40.4997 49.2666 40.8435 49.1872 41.1837L31.5794 41.1837L47.5945 45.475C47.43 45.7899 47.2567 46.0995 47.0748 46.4033L31.317 42.1811L44.4784 49.7798C44.2292 50.036 43.9726 50.285 43.709 50.5263L30.8025 43.0748L40.5686 52.8409C40.2597 53.0214 39.945 53.1931 39.625 53.3556L30.0723 43.803L36.3313 54.6439C35.9886 54.7408 35.6418 54.8279 35.2913 54.9051L29.1783 44.317L32.1256 55.3166C31.8629 55.3278 31.5988 55.3334 31.3333 55.3334C31.2427 55.3334 31.1523 55.3328 31.062 55.3315L28.1819 44.5831V55.0636C27.8347 55.0035 27.4909 54.9335 27.1507 54.8542V44.5848L24.6113 54.0619C24.2874 53.9342 23.968 53.7975 23.6535 53.6522L26.1542 44.3193L21.4598 52.4503C21.1692 52.2641 20.8841 52.0701 20.605 51.8683L25.2625 43.8013L18.74 50.3238C18.4902 50.0876 18.247 49.8444 18.0108 49.5946L24.5312 43.0741L16.4665 47.7303C16.2647 47.4512 16.0706 47.1662 15.8844 46.8756L24.0192 42.1789L14.6817 44.6809C14.5363 44.3664 14.3996 44.047 14.2719 43.7231L23.749 41.1837L13.4795 41.1837C13.4001 40.8435 13.3302 40.4997 13.27 40.1525H23.7462L13.002 37.2736C13.0007 37.1826 13 37.0914 13 37.0001C13 36.7353 13.0056 36.4719 13.0167 36.2099L24.0177 39.1576L13.428 33.0436C13.5051 32.6931 13.5923 32.3463 13.6891 32.0036L24.5345 38.2652L14.9778 28.7085C15.1404 28.3884 15.3121 28.0737 15.4926 27.7648L25.2626 37.5349L17.8081 24.6233C18.0495 24.3597 18.2985 24.1031 18.5548 23.854L26.1548 37.0177L21.9319 21.2576C22.2358 21.0757 22.5454 20.9024 22.8603 20.738Z" fill="#11122C"/>
<path d="M61.207 45.2575H65.197V38.3275H73.1537V34.8042H65.197V31.8408H73.667V28.3408H61.207V45.2575Z" fill="#11122C"/>
<path d="M80.4485 35.3175C81.9651 35.3175 83.1785 36.2508 83.1785 38.9342C83.1785 41.5708 82.0118 42.5742 80.4485 42.5742C78.8851 42.5742 77.7185 41.5708 77.7185 38.9342C77.7185 36.2508 78.9318 35.3175 80.4485 35.3175ZM80.4485 32.3308C76.9718 32.3308 73.7985 34.3842 73.7985 38.9342C73.7985 43.4842 76.9718 45.5608 80.4485 45.5608C83.9251 45.5608 87.0985 43.4842 87.0985 38.9342C87.0985 34.3842 83.9251 32.3308 80.4485 32.3308Z" fill="#11122C"/>
<path d="M94.4913 32.3308C90.688 32.3308 88.0746 34.9208 88.0746 38.9108C88.0746 42.9008 90.3613 45.5608 94.4913 45.5608C97.0113 45.5608 100.021 44.3708 100.885 40.6375H97.2913C97.0113 41.8275 96.148 42.5742 94.7246 42.5742C93.348 42.5742 91.9946 41.6642 91.9946 38.9342C91.9946 36.2508 93.348 35.3175 94.7246 35.3175C95.868 35.3175 96.778 35.8308 97.128 37.3008H100.721C99.9746 33.5208 97.1046 32.3308 94.4913 32.3308Z" fill="#11122C"/>
<path d="M109.931 37.4175C105.054 37.7908 101.578 38.7942 101.578 41.8742C101.578 44.1608 103.538 45.5608 105.918 45.5608C107.714 45.5608 109.208 45.0708 110.141 43.7408L110.188 45.2575H113.968C113.781 44.4642 113.688 42.9942 113.688 41.6175V40.3108L113.734 37.5808C113.804 33.7775 111.751 32.3075 108.134 32.3075C104.401 32.3075 102.161 34.4075 101.974 36.7642H105.568C105.731 35.5508 106.571 34.9208 107.808 34.9208C109.208 34.9208 109.931 35.4342 109.931 36.9275V37.4175ZM110.024 39.9842C110.024 42.2942 108.858 42.9475 107.318 42.9475C106.314 42.9475 105.544 42.4108 105.544 41.5942C105.544 40.2408 107.341 39.9375 110.024 39.6808V39.9842Z" fill="#11122C"/>
<path d="M119.56 28.3408H115.71V45.2575H119.56V28.3408Z" fill="#11122C"/>
<path d="M122.015 28.3408V45.2575H126.005V39.4008H128.525C132.912 39.4008 136.202 38.3042 136.202 33.8475C136.202 29.4142 132.912 28.3408 128.525 28.3408H122.015ZM128.642 31.7008C130.508 31.7008 131.978 32.0742 131.978 33.8475C131.978 35.6208 130.508 36.0408 128.642 36.0408H126.005V31.7008H128.642Z" fill="#11122C"/>
<path d="M142.965 35.3175C144.482 35.3175 145.695 36.2508 145.695 38.9342C145.695 41.5708 144.529 42.5742 142.965 42.5742C141.402 42.5742 140.235 41.5708 140.235 38.9342C140.235 36.2508 141.449 35.3175 142.965 35.3175ZM142.965 32.3308C139.489 32.3308 136.315 34.3842 136.315 38.9342C136.315 43.4842 139.489 45.5608 142.965 45.5608C146.442 45.5608 149.615 43.4842 149.615 38.9342C149.615 34.3842 146.442 32.3308 142.965 32.3308Z" fill="#11122C"/>
<path d="M151.156 32.7042V45.2575H155.029V32.7042H151.156ZM151.156 28.3408V31.4208H155.006V28.3408H151.156Z" fill="#11122C"/>
<path d="M161.17 32.7042H157.32V45.2575H161.17V38.8175C161.17 36.4842 161.847 35.4108 163.503 35.4108C165.37 35.4108 165.44 36.8808 165.44 38.6775V45.2575H169.29V37.7208C169.29 34.3142 168.287 32.4242 165.067 32.4242C163.083 32.4242 161.73 33.4275 161.17 34.3608V32.7042Z" fill="#11122C"/>
<path d="M171.952 32.7042H169.969V35.4342H171.952V41.7342C171.952 44.6508 173.002 45.2575 176.106 45.2575H178.556V42.4808H177.459C176.176 42.4808 175.802 42.2475 175.802 41.0575V35.4342H178.556V32.7042H175.802V29.2742H171.952V32.7042Z" fill="#11122C"/>
</svg>