<svg xmlns="http://www.w3.org/2000/svg" width="184" height="74" viewBox="0 0 184 74" fill="none">
<path fill-rule="evenodd" clip-rule="evenodd" d="M50.1693 52.8092C59.0993 52.8092 66.3385 45.57 66.3385 36.64C66.3385 27.7099 59.0993 20.4707 50.1693 20.4707C41.2392 20.4707 34 27.7099 34 36.64C34 45.57 41.2392 52.8092 50.1693 52.8092ZM55.2135 28.003C55.4591 27.1309 54.6127 26.6151 53.8397 27.1658L43.0492 34.8529C42.2109 35.4501 42.3428 36.64 43.2473 36.64H46.0887V36.618H51.6265L47.1143 38.2101L45.125 45.2769C44.8795 46.1491 45.7258 46.6648 46.4989 46.1141L57.2893 38.4271C58.1276 37.8299 57.9957 36.64 57.0913 36.64H52.7823L55.2135 28.003Z" fill="#11122C"/>
<path d="M74.7031 43.9217V41.364H76.7316V31.0451H74.7031V28.4874H82.6408C83.5815 28.4874 84.3973 28.6491 85.0882 28.9725C85.7938 29.2812 86.3377 29.7295 86.7198 30.3175C87.1167 30.8907 87.3152 31.5816 87.3152 32.3901V32.6106C87.3152 33.3161 87.1829 33.8968 86.9183 34.3524C86.6537 34.7934 86.3377 35.1388 85.9702 35.3887C85.6174 35.6239 85.2793 35.793 84.9559 35.8959V36.2927C85.2793 36.3809 85.6321 36.55 86.0143 36.7999C86.3964 37.0351 86.7198 37.3805 86.9844 37.8362C87.2637 38.2919 87.4034 38.8872 87.4034 39.6221V39.8426C87.4034 40.6952 87.2049 41.4302 86.808 42.0475C86.4111 42.6502 85.8599 43.1132 85.1544 43.4366C84.4635 43.76 83.655 43.9217 82.729 43.9217H74.7031ZM79.6421 41.2758H82.3762C83.0083 41.2758 83.5154 41.1215 83.8976 40.8128C84.2944 40.5041 84.4929 40.0631 84.4929 39.4899V39.2694C84.4929 38.6961 84.3018 38.2551 83.9196 37.9464C83.5374 37.6377 83.023 37.4834 82.3762 37.4834H79.6421V41.2758ZM79.6421 34.8375H82.3321C82.9348 34.8375 83.4272 34.6832 83.8094 34.3745C84.2062 34.0658 84.4047 33.6395 84.4047 33.0956V32.8751C84.4047 32.3166 84.2136 31.8903 83.8314 31.5963C83.4492 31.2876 82.9495 31.1333 82.3321 31.1333H79.6421V34.8375Z" fill="#202024"/>
<path d="M93.9753 44.2304C92.8876 44.2304 91.9101 44.0099 91.0428 43.5689C90.1756 43.1279 89.492 42.4885 88.9923 41.6507C88.4925 40.8128 88.2426 39.8059 88.2426 38.6299V38.2772C88.2426 37.1012 88.4925 36.0943 88.9923 35.2564C89.492 34.4186 90.1756 33.7792 91.0428 33.3382C91.9101 32.8972 92.8876 32.6767 93.9753 32.6767C95.0631 32.6767 96.0406 32.8972 96.9079 33.3382C97.7751 33.7792 98.4586 34.4186 98.9584 35.2564C99.4582 36.0943 99.7081 37.1012 99.7081 38.2772V38.6299C99.7081 39.8059 99.4582 40.8128 98.9584 41.6507C98.4586 42.4885 97.7751 43.1279 96.9079 43.5689C96.0406 44.0099 95.0631 44.2304 93.9753 44.2304ZM93.9753 41.7609C94.8279 41.7609 95.5335 41.489 96.092 40.9451C96.6506 40.3865 96.9299 39.5927 96.9299 38.5638V38.3433C96.9299 37.3144 96.6506 36.5279 96.092 35.9841C95.5482 35.4255 94.8426 35.1462 93.9753 35.1462C93.1228 35.1462 92.4172 35.4255 91.8586 35.9841C91.3001 36.5279 91.0208 37.3144 91.0208 38.3433V38.5638C91.0208 39.5927 91.3001 40.3865 91.8586 40.9451C92.4172 41.489 93.1228 41.7609 93.9753 41.7609Z" fill="#202024"/>
<path d="M101.17 43.9217V28.4874H103.948V43.9217H101.17Z" fill="#202024"/>
<path d="M110.114 43.9217C109.393 43.9217 108.805 43.7012 108.35 43.2602C107.909 42.8046 107.688 42.2019 107.688 41.4522V35.2785H104.954V32.9854H107.688V29.5898H110.466V32.9854H113.465V35.2785H110.466V40.9671C110.466 41.4081 110.672 41.6286 111.084 41.6286H113.201V43.9217H110.114Z" fill="#202024"/>
<path d="M119.42 44.2304C117.994 44.2304 116.825 43.9217 115.914 43.3043C115.002 42.687 114.451 41.805 114.26 40.6584L116.818 39.997C116.921 40.5115 117.09 40.9157 117.325 41.2097C117.575 41.5037 117.876 41.7168 118.229 41.8491C118.596 41.9667 118.993 42.0255 119.42 42.0255C120.066 42.0255 120.544 41.9152 120.853 41.6948C121.161 41.4596 121.316 41.1729 121.316 40.8348C121.316 40.4968 121.169 40.2395 120.875 40.0631C120.581 39.872 120.11 39.7177 119.464 39.6001L118.846 39.4899C118.082 39.3429 117.384 39.1444 116.752 38.8945C116.12 38.6299 115.612 38.2698 115.23 37.8141C114.848 37.3584 114.657 36.7705 114.657 36.0502C114.657 34.9625 115.054 34.1319 115.848 33.5587C116.641 32.9707 117.685 32.6767 118.979 32.6767C120.199 32.6767 121.213 32.9486 122.021 33.4925C122.83 34.0364 123.359 34.7493 123.609 35.6313L121.029 36.425C120.912 35.8665 120.669 35.4696 120.302 35.2344C119.949 34.9992 119.508 34.8816 118.979 34.8816C118.449 34.8816 118.045 34.9772 117.766 35.1682C117.487 35.3446 117.347 35.5945 117.347 35.9179C117.347 36.2707 117.494 36.5353 117.788 36.7117C118.082 36.8734 118.479 36.9983 118.979 37.0865L119.596 37.1968C120.419 37.3437 121.161 37.5422 121.823 37.7921C122.499 38.0273 123.028 38.3727 123.41 38.8284C123.807 39.2694 124.006 39.872 124.006 40.6364C124.006 41.7829 123.587 42.6723 122.749 43.3043C121.926 43.9217 120.816 44.2304 119.42 44.2304Z" fill="#202024"/>
<path d="M125.338 43.9217V28.4874H128.116V34.3304H128.513C128.63 34.0952 128.814 33.86 129.064 33.6248C129.314 33.3896 129.645 33.1985 130.056 33.0515C130.483 32.8898 131.019 32.809 131.666 32.809C132.518 32.809 133.261 33.0074 133.893 33.4043C134.54 33.7865 135.039 34.323 135.392 35.0139C135.745 35.6901 135.921 36.4838 135.921 37.3952V43.9217H133.143V37.6157C133.143 36.7925 132.937 36.1752 132.526 35.7636C132.129 35.352 131.556 35.1462 130.806 35.1462C129.953 35.1462 129.292 35.4328 128.822 36.0061C128.351 36.5647 128.116 37.3511 128.116 38.3654V43.9217H125.338Z" fill="#202024"/>
<path d="M137.822 43.9217V32.9854H140.6V43.9217H137.822ZM139.211 31.7066C138.712 31.7066 138.285 31.5449 137.932 31.2215C137.594 30.8981 137.425 30.4718 137.425 29.9426C137.425 29.4135 137.594 28.9872 137.932 28.6638C138.285 28.3404 138.712 28.1787 139.211 28.1787C139.726 28.1787 140.152 28.3404 140.49 28.6638C140.828 28.9872 140.997 29.4135 140.997 29.9426C140.997 30.4718 140.828 30.8981 140.49 31.2215C140.152 31.5449 139.726 31.7066 139.211 31.7066Z" fill="#202024"/>
<path d="M144.385 43.9217V35.2785H141.606V32.9854H144.385V30.9569C144.385 30.2072 144.605 29.6119 145.046 29.1709C145.502 28.7152 146.09 28.4874 146.81 28.4874H149.676V30.7805H147.78C147.369 30.7805 147.163 31.001 147.163 31.442V32.9854H150.029V35.2785H147.163V43.9217H144.385Z" fill="#202024"/>
<path d="M155.051 43.9217C154.331 43.9217 153.743 43.7012 153.288 43.2602C152.847 42.8046 152.626 42.2019 152.626 41.4522V35.2785H149.892V32.9854H152.626V29.5898H155.404V32.9854H158.403V35.2785H155.404V40.9671C155.404 41.4081 155.61 41.6286 156.022 41.6286H158.138V43.9217H155.051Z" fill="#202024"/>
</svg>