<svg xmlns="http://www.w3.org/2000/svg" width="36" height="36" id="Email">
  <path fill-rule="evenodd" d="M18 0C8.059 0 0 8.059 0 18s8.059 18 18 18 18-8.059 18-18S27.941 0 18 0zm-.469 13h9.094a.5.5 0 0 1 .5.594v5a4.403 4.403 0 0 1 1.375 2.5c.045.243.062.497.063.75 0 .26-.015.499-.063.75-.176 1-.711 1.881-1.438 2.531a.5.5 0 0 1-.312.25c-.561.417-1.218.7-1.938.813-.22.044-.427.093-.656.093h-.062a3.416 3.416 0 0 1-.625-.062 4.329 4.329 0 0 1-1.907-.813H8.438a.5.5 0 0 1-.5-.5V13.531a.5.5 0 0 1 .094-.281.5.5 0 0 1 .063-.063.5.5 0 0 1 .062-.062.5.5 0 0 1 .094-.063.5.5 0 0 1 .094-.03.5.5 0 0 1 .094 0L17.53 13zm-7.343 1.031 7.343 4.594 7.344-4.594H10.187zm15.937.375-8.313 5.219a.5.5 0 0 1-.53 0l-8.345-5.188v9.97h11.626a4.377 4.377 0 0 1-.844-2.563 4.453 4.453 0 0 1 4.437-4.438c.715 0 1.37.196 1.969.5v-3.5zm-1.969 4a3.438 3.438 0 0 0-3.437 3.438c0 1.123.549 2.093 1.375 2.718.097.075.208.156.312.22.078.046.137.084.219.124.096.048.213.086.313.125.111.043.226.094.343.125.08.021.138.047.219.063.203.038.411.062.625.062h.031a3.3 3.3 0 0 0 .625-.062c.085-.016.167-.071.25-.094.11-.03.238-.054.344-.094.1-.039.184-.077.281-.125.087-.042.167-.075.25-.125.095-.057.192-.12.282-.187.066-.05.124-.102.187-.157.142-.123.288-.263.406-.406.036-.044.06-.08.094-.125.111-.148.196-.336.281-.5.028-.053.069-.101.094-.156.087-.191.168-.389.219-.594.007-.028.025-.034.031-.062.054-.243.062-.497.063-.75 0-.255-.009-.507-.063-.75-.005-.021-.026-.042-.031-.063a3.516 3.516 0 0 0-.219-.625c-.023-.05-.037-.107-.063-.156-.086-.167-.199-.317-.312-.469-.034-.045-.058-.082-.094-.125a3.598 3.598 0 0 0-.406-.406c-.6-.52-1.36-.844-2.219-.844zm-.062 1.157a.5.5 0 0 1 .031 0 .5.5 0 0 1 .531.53v1.25h1.25a.5.5 0 1 1 0 1h-1.25v1.25a.5.5 0 1 1-1 0v-1.25h-1.281a.5.5 0 1 1 0-1h1.281v-1.25a.5.5 0 0 1 .438-.53z" fill="#ff7d46" class="color000000 svgShape"/>
</svg>