<svg xmlns="http://www.w3.org/2000/svg" viewBox="0 0 400 400" id="ExperienceTransfer">
  <path fill="#ff7e48" d="M299.9 319.5s-43.7 45.4-146 7c0 0 43.8 60.8 114.7 69.9l31.3-76.9zM73.1 213S47.4 343.6 7 343.6h66.1V213z" opacity=".3" class="color485eff svgShape"></path>
  <path fill="#ff8c5c" d="M190.4 125.1c1.8 2 3.7 3.8 5.7 5.4 5.4 7.7 14.7 22.4 15.3 33.6 0 0 1.2 9.8 13.4 9.8h10.1c12.2 0 13.4-9.8 13.4-9.8.6-11.8 11.1-27.8 16.2-35.1 10.7-9.6 17.4-23.5 17.4-39 0-29-23.5-52.4-52.4-52.4h-1.6c-10.1.3-19.5 3.5-27.4 8.7-7.3 4.8-13.3 11.4-17.4 19.2-3.9 7.3-6 15.6-6 24.5-.1 13.5 5 25.8 13.3 35.1" class="color5c77ff svgShape"></path>
  <path fill="#ff7d46" d="M388.4 200.6c-.5-.7-1.1-1.5-1.3-1.8-.4-.7-1.5-3.5-2.4-5.7-4-10.1-8.1-19.6-13.2-24.2-3.1-2.8-3.4-8.1-3.1-11.1 11.7-12.2 7.9-28.5 3.7-36.6-.7-38.5-9.9-56.2-16.5-64.1 4.2-2.7 8.3-6.8 7.7-12.6-.9-8.4-11.5-15.3-34.3-22.5-13.6-4.3-26.8-7-29.6-7.6C267.5.7 236.6-.5 216.1 1c-22.2.7-43.8 7.6-62.2 19.8-18.8 11.3-32.1 26.1-39.8 44-9 17-13.7 36.2-13.7 55.5 0 26.4 8.5 51.5 24.5 72.4 1.7 2.2 4.8 2.6 7 .9 2.2-1.7 2.6-4.8.9-7-14.7-19.2-22.4-42.1-22.4-66.3 0-17.8 4.4-35.4 12.6-51.1.1-.1.1-.3.2-.4 6.8-16.1 18.8-29.4 35.9-39.6.1 0 .1-.1.2-.1 17-11.3 36.8-17.6 57.2-18.2h.2c19.4-1.4 48.9-.4 79.1 12.9.3.1.7.3 1 .3.1 0 14.7 2.9 29.2 7.5 26.3 8.3 27.2 13.9 27.2 13.9s-.4 2.4-8.4 5.8c-1.8.8-3 2.5-3 4.5-.1 1.9 1 3.7 2.8 4.6.2.1 16.9 9.9 17.5 62.1 0 .9.2 1.7.7 2.5.1.2 9.1 15.9-2.6 26.7-.8.7-1.3 1.7-1.5 2.7-.1.6-2.5 14.1 6.1 21.8 3.8 3.4 8 14.1 10.5 20.4 1.6 4 2.4 6.1 3.3 7.4.4.6.9 1.3 1.7 2.3 5.8 7.8 7.1 11.2 7.2 12.6-.1 0-.2 0-.3.1-12.9 2.3-20.4 9.4-20.7 9.7-1.3 1.2-1.8 2.9-1.5 4.6 0 .2 3.9 21.6-6 24.7-2.3.7-3.7 2.9-3.5 5.3.3 2.7.1 10.8-4 12.9-1.5.8-2.5 2.3-2.7 3.9l-1.1 10.5c-.1 1.3.2 2.5 1 3.5 3.5 4.5 11.6 18.1 7.4 26.5-3.1 6.2-13.2 9.5-29.1 9.6L296 318c-2.5-1-5.4.2-6.4 2.7l-28.9 68c-16.4-3.3-81.8-19.8-103.8-74.3-1-2.6-3.9-3.8-6.5-2.8s-3.8 3.9-2.8 6.5c11.3 28.1 34.9 51 68.2 66.3 24.9 11.5 46.3 14.7 47.2 14.8.2 0 .5.1.7.1 2 0 3.8-1.2 4.6-3l28.5-67.2 27.3 10.8c.6.2 1.2.3 1.8.4h.7c20.5 0 33.4-5.1 38.3-15.1 6.6-13.3-3.6-30-7.3-35.3l.6-6.3c5.8-4.7 6.9-12.7 7-17.5 10.3-6 11.2-21.1 9.8-31.5 2.5-1.7 7.2-4.4 13.7-5.6 5.2-.9 7.1-4.1 7.8-5.8 3-6.7-2.6-15.2-8.1-22.6z" class="color284172 svgShape"></path>
  <path fill="#ff7d46" d="m150.3 305.3 115.6-43.6c2-.8 3.9-1.8 5.7-3l69.4-47.6c3.5-2.4 5.4-6.3 5.2-10.6-.2-4.2-2.6-8-6.3-10-13.8-7.6-27.7-4.6-36.2-1.4l5.1-10.5c1.3-2.6 1.3-5.5.1-8.1-1.2-2.6-3.4-4.6-6.2-5.3-3.4-1-6.7-1.4-10-1.4-21.3 0-32 19.9-33.3 22.4l-24.5 41.6H220c-.8 0-1.5.2-2.1.5 5.4-3.6 9.9-10.1 13-19.2 1.3-3.6.7-7.7-1.6-10.8-2.2-3.1-5.9-5-9.7-5h-73.1c-8.3 0-16.1 3.2-22 9.1l-19.1 19.1c-1.8 1.8-4.1 3.1-6.5 3.7v-7c0-2.8-2.2-5-5-5H78.1v-.2c0-2.8-2.2-5-5-5H7c-2.8 0-5 2.2-5 5s2.2 5 5 5h61.1v120.6H7c-2.8 0-5 2.2-5 5s2.2 5 5 5h66.1c2.8 0 5-2.2 5-5V334h15.8c2.8 0 5-2.2 5-5v-20h31.3c6.9 0 13.7-1.2 20.1-3.7zm118-114.3c.1-.1.1-.2.2-.4s8.5-16.9 24.4-16.9c2.2 0 4.5.3 6.8.9l-11 22.5-36.7 21.6 16.3-27.7zM88.9 324H78.1V223.2h10.8V324zm10-88.6c5.1-.8 9.9-3.2 13.6-6.9l19.1-19.1c4-4 9.3-6.2 14.9-6.2h73.1c.9 0 1.3.5 1.5.8.2.3.5.9.2 1.8-2 5.9-6.6 15.8-14.2 15.8H154c-2.8 0-5 2.2-5 5s2.2 5 5 5h53.1c3.4 0 6.6-.9 9.6-2.6-1.1.9-1.8 2.3-1.8 3.9 0 2.8 2.2 5 5 5h19c.2 0 .3-.1.5-.1.1 0 .2-.1.3-.1.1 0 .3-.1.4-.1l.6-.3 33.4-19.6 21.1-12.4 5.8-3.4c.1 0 .1-.1.2-.1.2-.1 17.7-11.2 34.1-2.2.9.5 1.1 1.3 1.1 1.7 0 .4-.1 1.2-.9 1.8l-69.4 47.6c-1.1.8-2.3 1.4-3.6 1.9L146.8 296c-5.3 2-10.9 3-16.6 3H98.9v-63.6z" class="color284172 svgShape"></path>
  <path fill="#ff7d46" d="M62.2 319.1c0-8.2-6.6-14.8-14.8-14.8s-14.8 6.6-14.8 14.8c0 8.2 6.6 14.8 14.8 14.8s14.8-6.6 14.8-14.8zm-19.6 0c0-2.7 2.2-4.8 4.8-4.8 2.7 0 4.8 2.2 4.8 4.8s-2.2 4.8-4.8 4.8c-2.7.1-4.8-2.1-4.8-4.8zM258.3 90.7c-.9-1.4-2.5-2.2-4.2-2.2h-1c-3.6 0-4.6-.5-4.6-.6-.3-.2-1.4-.9-3.5-3.5-.9-1.2-2.4-1.9-3.9-1.9s-2.9.6-3.9 1.8c-2 2.4-3.1 3.1-3.4 3.2 0 0-1.1.5-4.5.5-3.5 0-4.6-.5-4.6-.5-.3-.2-1.4-.9-3.4-3.4-.9-1.2-2.4-1.9-3.9-1.9s-2.9.7-3.9 1.8c-2.1 2.5-3.2 3.2-3.4 3.4 0 0-1 .5-4.6.5h-1c-1.7 0-3.2.8-4.2 2.2-.9 1.4-1.1 3.1-.5 4.7 4.5 10.9 8.3 20.9 11.3 29.6 3.1 9.3 5.3 18.7 5.8 34.6.1 2.7 2.3 4.9 5 4.9H238c2.7 0 4.9-2.1 5-4.9.5-17 1.7-26.3 4.5-34.4 2.9-8.7 6.7-18.6 11.2-29.4.7-1.3.6-3.1-.4-4.5zm-20.2 30.9c-2.8 8.3-4.2 17.3-4.8 32.4h-6.5c-.8-14.3-3-23.5-6.1-32.6-2.5-7.2-5.4-15.2-8.9-23.9 1.2-.3 2.2-.7 3.1-1.1.8-.5 1.7-1 2.6-1.8.9.8 1.7 1.3 2.6 1.8 2.2 1.2 5.2 1.7 9.3 1.7 4 0 6.9-.5 9.1-1.6.8-.4 1.6-1 2.5-1.7.9.8 1.8 1.4 2.7 1.9.9.5 2 .9 3.3 1.2-3.5 8.7-6.5 16.6-8.9 23.7zm4.6 59.3h-25.1c-2.8 0-5 2.2-5 5s2.2 5 5 5h25.1c2.8 0 5-2.2 5-5s-2.2-5-5-5z" class="color284172 svgShape"></path>
  <path fill="#ff8c5c" d="M271.3 150c-1.2 0-2.5-.6-3.2-1.7-1.2-1.8-.8-4.2 1-5.4 2-1.4 3.9-2.9 5.7-4.4 1.6-1.4 4.1-1.2 5.5.4 1.4 1.6 1.2 4.1-.4 5.5-2 1.8-4.2 3.4-6.4 5-.7.4-1.4.6-2.2.6zm-83.9-.1c-.8 0-1.6-.2-2.2-.7-2.2-1.5-4.4-3.2-6.4-5-1.6-1.4-1.8-3.9-.4-5.5s3.9-1.8 5.5-.4c1.8 1.6 3.7 3.1 5.7 4.5 1.8 1.2 2.2 3.7 1 5.4-.8 1.1-2 1.7-3.2 1.7zm100.4-15.8c-.8 0-1.6-.3-2.3-.8-1.7-1.3-2.1-3.7-.8-5.5 1.4-1.9 2.8-4 4-6 1.1-1.9 3.5-2.5 5.3-1.4s2.5 3.5 1.4 5.3c-1.4 2.3-2.9 4.6-4.5 6.8-.7 1.1-1.9 1.6-3.1 1.6zm-116.9-.2c-1.2 0-2.4-.5-3.1-1.6-1.6-2.2-3.1-4.5-4.4-6.8-1.1-1.9-.4-4.3 1.4-5.3 1.9-1.1 4.3-.4 5.3 1.4 1.2 2.1 2.5 4.1 4 6.1 1.3 1.7.9 4.2-.8 5.5-.7.4-1.6.7-2.4.7zm127.3-20.2c-.4 0-.8-.1-1.2-.2-2.1-.6-3.2-2.8-2.6-4.9.7-2.3 1.3-4.7 1.7-7 .4-2.1 2.4-3.5 4.6-3.1 2.1.4 3.5 2.4 3.1 4.6-.5 2.6-1.2 5.3-2 7.9-.4 1.6-1.9 2.7-3.6 2.7zm-137.6-.3c-1.7 0-3.2-1.1-3.7-2.8-.8-2.6-1.4-5.2-1.9-7.9-.4-2.1 1-4.2 3.1-4.5 2.1-.4 4.2 1 4.5 3.1.4 2.4 1 4.7 1.7 7 .6 2.1-.5 4.2-2.6 4.9-.3.2-.7.2-1.1.2zM301.1 91c-2.1 0-3.8-1.6-3.9-3.7-.1-2.4-.4-4.8-.7-7.2-.3-2.1 1.1-4.1 3.2-4.5 2.1-.3 4.1 1.1 4.5 3.2.4 2.7.7 5.4.8 8.1.1 2.2-1.6 4-3.7 4.1h-.2zm-143.3-.3h-.2c-2.2-.1-3.8-1.9-3.7-4.1.1-2.7.4-5.4.9-8.1.4-2.1 2.4-3.6 4.5-3.2 2.1.4 3.6 2.4 3.2 4.5-.4 2.4-.6 4.8-.8 7.2-.1 2-1.8 3.7-3.9 3.7zm138.4-22.1c-1.5 0-3-.9-3.6-2.4-.9-2.2-2-4.4-3.1-6.5-1-1.9-.4-4.3 1.5-5.3s4.3-.4 5.3 1.5c1.3 2.4 2.5 4.8 3.5 7.3.8 2-.1 4.3-2.1 5.1-.5.2-1 .3-1.5.3zm-133.4-.3c-.5 0-1-.1-1.5-.3-2-.8-2.9-3.1-2.1-5.1 1-2.5 2.2-4.9 3.5-7.3 1.1-1.9 3.4-2.6 5.3-1.5 1.9 1 2.6 3.4 1.5 5.3-1.2 2.1-2.2 4.3-3.1 6.5-.6 1.5-2.1 2.4-3.6 2.4zm121.3-19.1c-1.1 0-2.2-.4-2.9-1.3-1.6-1.8-3.3-3.5-5.1-5.2-1.6-1.4-1.7-3.9-.3-5.5s3.9-1.7 5.5-.3c2 1.8 3.9 3.7 5.7 5.8 1.4 1.6 1.3 4.1-.3 5.5-.8.6-1.7 1-2.6 1zM175 48.9c-.9 0-1.9-.3-2.6-1-1.6-1.4-1.7-3.9-.3-5.5 1.8-2 3.7-3.9 5.7-5.7 1.6-1.4 4.1-1.3 5.5.3 1.4 1.6 1.3 4.1-.3 5.5-1.8 1.6-3.5 3.3-5.1 5.1-.7.9-1.8 1.3-2.9 1.3zm91.3-14.2c-.7 0-1.3-.2-1.9-.5-2.1-1.2-4.3-2.3-6.5-3.3-2-.9-2.9-3.2-2-5.2.9-2 3.2-2.9 5.2-2 2.5 1.1 4.9 2.3 7.2 3.7 1.9 1.1 2.5 3.5 1.4 5.3-.8 1.3-2.1 2-3.4 2zm-73.4-.2c-1.4 0-2.7-.7-3.4-2-1.1-1.9-.4-4.3 1.5-5.3 2.3-1.3 4.8-2.6 7.2-3.6 2-.9 4.3 0 5.1 2s0 4.3-2 5.1c-2.2 1-4.4 2.1-6.5 3.3-.6.4-1.3.5-1.9.5zm52-8c-.3 0-.5 0-.8-.1-2.4-.5-4.8-.9-7.2-1.1-2.1-.2-3.7-2.1-3.5-4.3.2-2.1 2.1-3.7 4.3-3.5 2.7.3 5.4.7 8 1.3 2.1.4 3.5 2.5 3 4.6-.4 1.8-2 3.1-3.8 3.1zm-30.5-.1c-1.8 0-3.4-1.3-3.8-3.1-.4-2.1.9-4.2 3-4.6 2.6-.5 5.3-1 8-1.2 2.2-.2 4.1 1.4 4.3 3.5.2 2.1-1.4 4.1-3.5 4.3-2.4.2-4.8.6-7.2 1.1h-.8z" class="color5c77ff svgShape"></path>
</svg>