<svg xmlns="http://www.w3.org/2000/svg" width="1320" height="582" viewBox="0 0 1320 582" fill="none">
<g opacity="0.2" clip-path="url(#clip0_38965_1779)">
<path d="M1485.09 552.202L857.588 808.535L859.259 812.625L1486.76 556.291L1485.09 552.202Z" fill="#52525A"/>
<path d="M1468.14 513.617L853.457 799.333L855.319 803.339L1470 517.624L1468.14 513.617Z" fill="#52525A"/>
<path d="M1449.19 475.674L849.148 790.971L851.203 794.882L1451.25 479.585L1449.19 475.674Z" fill="#52525A"/>
<path d="M1428.89 439.325L844.184 782.231L846.419 786.042L1431.12 443.136L1428.89 439.325Z" fill="#52525A"/>
<path d="M1407.06 404.04L838.582 773.217L840.988 776.922L1409.47 407.745L1407.06 404.04Z" fill="#52525A"/>
<path d="M1383.38 369.744L833.055 765.482L835.634 769.069L1385.96 373.331L1383.38 369.744Z" fill="#52525A"/>
<path d="M1358.24 336.513L826.945 757.457L829.689 760.92L1360.98 339.975L1358.24 336.513Z" fill="#52525A"/>
<path d="M1331.84 304.961L820.426 749.841L823.325 753.174L1334.74 308.294L1331.84 304.961Z" fill="#52525A"/>
<path d="M1303.94 274.477L813.477 742.355L816.526 745.552L1306.99 277.674L1303.94 274.477Z" fill="#52525A"/>
<path d="M1274.33 245.017L806.625 735.643L809.823 738.691L1277.53 248.065L1274.33 245.017Z" fill="#52525A"/>
<path d="M1243.86 217.339L798.895 728.677L802.227 731.577L1247.2 220.24L1243.86 217.339Z" fill="#52525A"/>
<path d="M1211.81 190.861L791.24 722.445L794.705 725.186L1215.28 193.603L1211.81 190.861Z" fill="#52525A"/>
<path d="M1178.54 165.848L783.092 716.378L786.68 718.955L1182.13 168.426L1178.54 165.848Z" fill="#52525A"/>
<path d="M1144.01 142.387L774.928 710.934L778.633 713.339L1147.71 144.793L1144.01 142.387Z" fill="#52525A"/>
<path d="M1108.81 120.796L766.104 705.619L769.915 707.853L1112.62 123.029L1108.81 120.796Z" fill="#52525A"/>
<path d="M1072.22 100.615L757.34 700.878L761.252 702.93L1076.13 102.668L1072.22 100.615Z" fill="#52525A"/>
<path d="M1034.69 82.1663L748.121 696.445L752.125 698.313L1038.7 84.034L1034.69 82.1663Z" fill="#52525A"/>
<path d="M995.869 65.3296L739.207 692.695L743.296 694.368L999.958 67.0024L995.869 65.3296Z" fill="#52525A"/>
<path d="M955.834 50.1667L730.125 689.321L734.291 690.792L960 51.6377L955.834 50.1667Z" fill="#52525A"/>
<path d="M915.807 37.1978L720.23 686.207L724.46 687.482L920.037 38.4725L915.807 37.1978Z" fill="#52525A"/>
<path d="M874.13 25.813L710.605 683.63L714.893 684.696L878.417 26.8788L874.13 25.813Z" fill="#52525A"/>
<path d="M832.169 16.5995L700.742 681.573L705.076 682.43L836.503 17.4561L832.169 16.5995Z" fill="#52525A"/>
<path d="M789.635 9.32044L690.264 679.834L694.634 680.482L794.005 9.96811L789.635 9.32044Z" fill="#52525A"/>
<path d="M746.416 4.13181L679.918 678.699L684.315 679.133L750.813 4.56522L746.416 4.13181Z" fill="#52525A"/>
<path d="M702.257 0.925428L669.381 677.965L673.794 678.179L706.669 1.1397L702.257 0.925428Z" fill="#52525A"/>
<path d="M662.699 0H658.281V677.837H662.699V0Z" fill="#52525A"/>
<path d="M618.483 1.02365L614.07 1.24023L647.301 678.262L651.713 678.046L618.483 1.02365Z" fill="#52525A"/>
<path d="M574.692 4.15036L570.295 4.58301L636.676 679.162L641.072 678.729L574.692 4.15036Z" fill="#52525A"/>
<path d="M531.358 9.24297L526.988 9.89062L626.36 680.404L630.73 679.757L531.358 9.24297Z" fill="#52525A"/>
<path d="M488.638 16.5789L484.305 17.4385L616.196 682.32L620.529 681.461L488.638 16.5789Z" fill="#52525A"/>
<path d="M446.582 25.8619L442.295 26.9307L606.279 684.633L610.565 683.564L446.582 25.8619Z" fill="#52525A"/>
<path d="M405.302 37.1704L401.072 38.4443L596.536 687.488L600.766 686.214L405.302 37.1704Z" fill="#52525A"/>
<path d="M364.783 50.3127L360.619 51.7881L586.997 690.706L591.162 689.231L364.783 50.3127Z" fill="#52525A"/>
<path d="M325.171 65.2481L321.082 66.9209L577.744 694.287L581.833 692.614L325.171 65.2481Z" fill="#52525A"/>
<path d="M286.462 82.0452L282.457 83.9102L568.602 698.389L572.607 696.524L286.462 82.0452Z" fill="#52525A"/>
<path d="M248.827 100.614L244.914 102.666L559.687 702.984L563.6 700.932L248.827 100.614Z" fill="#52525A"/>
<path d="M212.195 120.823L208.383 123.056L550.983 707.939L554.795 705.706L212.195 120.823Z" fill="#52525A"/>
<path d="M176.678 142.64L172.975 145.049L542.548 713.273L546.251 710.864L176.678 142.64Z" fill="#52525A"/>
<path d="M142.3 166.021L138.713 168.6L534.355 718.991L537.942 716.412L142.3 166.021Z" fill="#52525A"/>
<path d="M109.122 190.924L105.658 193.666L526.417 725.103L529.881 722.361L109.122 190.924Z" fill="#52525A"/>
<path d="M77.1945 217.364L73.8613 220.264L518.741 731.679L522.074 728.779L77.1945 217.364Z" fill="#52525A"/>
<path d="M46.4802 245.086L43.2852 248.137L511.42 738.354L514.615 735.303L46.4802 245.086Z" fill="#52525A"/>
<path d="M17.1937 274.358L14.1426 277.553L504.36 745.687L507.411 742.492L17.1937 274.358Z" fill="#52525A"/>
<path d="M-10.8016 304.82L-13.7012 308.153L497.714 753.033L500.613 749.7L-10.8016 304.82Z" fill="#52525A"/>
<path d="M-37.3338 336.656L-40.0762 340.12L491.361 760.879L494.103 757.415L-37.3338 336.656Z" fill="#52525A"/>
<path d="M-62.3901 369.713L-64.9688 373.3L485.423 768.942L488.001 765.355L-62.3901 369.713Z" fill="#52525A"/>
<path d="M-85.9643 403.974L-88.373 407.678L479.851 777.251L482.26 773.548L-85.9643 403.974Z" fill="#52525A"/>
<path d="M-107.968 439.391L-110.201 443.203L474.682 785.803L476.915 781.991L-107.968 439.391Z" fill="#52525A"/>
<path d="M-128.331 475.91L-130.383 479.822L469.935 794.595L471.986 790.683L-128.331 475.91Z" fill="#52525A"/>
<path d="M-147.06 513.476L-148.924 517.481L465.605 803.519L467.469 799.514L-147.06 513.476Z" fill="#52525A"/>
<path d="M-164.005 552.129L-165.678 556.218L461.688 812.88L463.361 808.791L-164.005 552.129Z" fill="#52525A"/>
</g>
<defs>
<clipPath id="clip0_38965_1779">
<rect width="1783" height="1783" fill="white" transform="translate(-231)"/>
</clipPath>
</defs>
</svg>