<svg xmlns="http://www.w3.org/2000/svg" viewBox="0 0 512 512" id="Processing">
  <linearGradient id="a" x1="60.953" x2="457.491" y1="473.66" y2="77.123" gradientUnits="userSpaceOnUse">
    <stop offset="0" stop-color="#fc550e" class="stopColorfcc60e svgShape"></stop>
    <stop offset="1" stop-color="#ff7d46" class="stopColore92e29 svgShape"></stop>
  </linearGradient>
  <path fill="url(#a)" d="M263.821 279.02a8 8 0 0 1 8-8h87.497a8 8 0 0 1 0 16h-87.497a8 8 0 0 1-8-8zm-85.837 8h58.331a8 8 0 0 0 0-16h-58.331a8 8 0 0 0 0 16zM509.01 393.794v97.48c0 11.428-9.297 20.726-20.725 20.726h-97.48c-11.428 0-20.725-9.298-20.725-20.726v-40.74H62.393c-32.755 0-59.403-26.648-59.403-59.403v-60.708c0-32.755 26.648-59.403 59.403-59.403h53.875c3.938-30.377 29.957-53.923 61.389-53.923h181.99c31.432 0 57.45 23.546 61.388 53.923h24.724c23.933 0 43.404-19.471 43.404-43.403V149.36c0-23.933-19.471-43.402-43.404-43.402H198.903v4.159a7.999 7.999 0 0 1-6.736 7.899l-21.213 3.396a73.555 73.555 0 0 1-3.923 9.458l12.603 17.406a8 8 0 0 1-.823 10.349l-17.196 17.196a8 8 0 0 1-10.348.822L133.86 164.04a73.496 73.496 0 0 1-9.457 3.921l-3.396 21.217a7.999 7.999 0 0 1-7.899 6.735H88.786a7.999 7.999 0 0 1-7.899-6.735l-3.396-21.215a73.212 73.212 0 0 1-9.458-3.923l-17.406 12.603a7.998 7.998 0 0 1-10.348-.822l-17.196-17.196a8 8 0 0 1-.823-10.349l12.604-17.406a73.431 73.431 0 0 1-3.922-9.458l-21.216-3.396a8 8 0 0 1-6.735-7.899v-24.32a8 8 0 0 1 6.735-7.899l21.215-3.396a73.503 73.503 0 0 1 3.922-9.459L22.259 47.637a8 8 0 0 1 .823-10.349l17.196-17.196a7.999 7.999 0 0 1 10.349-.822l17.405 12.603a73.509 73.509 0 0 1 9.459-3.923l3.396-21.214A7.999 7.999 0 0 1 88.786 0h24.319a7.999 7.999 0 0 1 7.899 6.735l3.396 21.214a73.496 73.496 0 0 1 9.458 3.923l17.407-12.603a7.998 7.998 0 0 1 10.348.822l17.196 17.196a8 8 0 0 1 .823 10.349L167.03 65.044a73.314 73.314 0 0 1 3.922 9.458l21.216 3.396a8 8 0 0 1 6.735 7.899v4.16h246.855c32.755 0 59.404 26.647 59.404 59.402v78.257c0 32.755-26.648 59.403-59.404 59.403h-24.724c-3.938 30.377-29.957 53.923-61.388 53.923h-181.99c-31.432 0-57.45-23.546-61.389-53.923H62.393c-23.933 0-43.403 19.471-43.403 43.403v60.708c0 23.933 19.471 43.403 43.403 43.403H370.08v-40.74c0-11.428 9.297-20.725 20.725-20.725h97.48c11.428.001 20.725 9.298 20.725 20.726zM182.903 92.618l-19.456-3.114a8.002 8.002 0 0 1-6.486-5.916 57.455 57.455 0 0 0-6.249-15.071 8 8 0 0 1 .401-8.772l11.56-15.966-7.55-7.549-15.966 11.559a8 8 0 0 1-8.772.401 57.405 57.405 0 0 0-15.069-6.249 8 8 0 0 1-5.917-6.486L106.284 16H95.608l-3.114 19.454a8.002 8.002 0 0 1-5.918 6.486 57.425 57.425 0 0 0-15.07 6.249 8.006 8.006 0 0 1-8.773-.401L46.769 36.229l-7.55 7.549 11.56 15.966a8 8 0 0 1 .401 8.772 57.438 57.438 0 0 0-6.249 15.069 8 8 0 0 1-6.486 5.918L18.99 92.618v10.677l19.456 3.114a8 8 0 0 1 6.486 5.917 57.45 57.45 0 0 0 6.249 15.069 8 8 0 0 1-.401 8.772l-11.56 15.966 7.55 7.549 15.965-11.559a8.003 8.003 0 0 1 8.772-.401 57.361 57.361 0 0 0 15.068 6.249 8 8 0 0 1 5.919 6.486l3.114 19.455h10.676l3.115-19.456a8 8 0 0 1 5.916-6.485 57.475 57.475 0 0 0 15.071-6.249 8 8 0 0 1 8.772.401l15.966 11.559 7.55-7.549-11.56-15.966a8 8 0 0 1-.4-8.773 57.378 57.378 0 0 0 6.249-15.068 8 8 0 0 1 6.487-5.918l19.454-3.113V92.618zm-51.17 186.402c0 25.322 20.601 45.923 45.923 45.923h181.99c25.322 0 45.922-20.601 45.922-45.923s-20.601-45.923-45.922-45.923h-181.99c-25.322 0-45.923 20.6-45.923 45.923zM493.01 393.794c0-2.561-2.164-4.725-4.725-4.725h-97.48c-2.562 0-4.725 2.164-4.725 4.725v97.48c0 2.562 2.164 4.726 4.725 4.726h97.48c2.562 0 4.725-2.164 4.725-4.726v-97.48zm-22.503 23.673a7.999 7.999 0 0 0-11.251 1.188l-24.902 30.784-15.083-15.083a8 8 0 1 0-11.313 11.314l21.369 21.368a8 8 0 0 0 11.876-.626l30.493-37.695a8 8 0 0 0-1.189-11.25zM144.879 97.956c0 24.225-19.708 43.933-43.933 43.933s-43.933-19.708-43.933-43.933 19.708-43.933 43.933-43.933 43.933 19.708 43.933 43.933zm-16 0c0-15.402-12.53-27.933-27.933-27.933s-27.933 12.53-27.933 27.933 12.53 27.933 27.933 27.933 27.933-12.531 27.933-27.933z"></path>
</svg>