<svg xmlns="http://www.w3.org/2000/svg" viewBox="0 0 64 64" id="worldwide">
  <g fill="#ff7d46" class="color000000 svgShape">
    <path d="M32.75,58.99994c0,.00958-.00507.01752-.00543.027-.00025.007.00439.01288.004.01983-.00135.02179-.01691.0387-.02015.06006a.7293.7293,0,0,1-.08642.25769.70139.70139,0,0,1-.05792.08594.733.733,0,0,1-.205.1817c-.017.01032-.02558.0296-.04358.03864l-6,3a.75009.75009,0,0,1-.6709-1.3418l3.45715-1.72839A27.7447,27.7447,0,0,1,13.36621,11.44427.75012.75012,0,0,1,14.374,12.5556,26.24516,26.24516,0,0,0,29.31909,58.114L25.584,55.624a.75.75,0,0,1,.832-1.248l6,4c.01574.01049.02142.02954.03619.04107a.733.733,0,0,1,.18188.20667.71083.71083,0,0,1,.04169.06176A.738.738,0,0,1,32.75,58.99994Zm20-27A20.74687,20.74687,0,0,1,11.64355,35.9931,20.43069,20.43069,0,0,1,11.25,31.99994v-.12988l.00018-.0036L11.25,31.86517A20.83022,20.83022,0,0,1,21.85187,13.89075,20.55619,20.55619,0,0,1,26.59521,11.955a.78327.78327,0,0,1,.15845-.0188l-.00512-.01734A20.75669,20.75669,0,0,1,50.08081,21.819l.00024.0003.00037.00074.00256.00415a20.10513,20.10513,0,0,1,2.51026,7.64026q.06856.58035.105,1.16931C52.73926,31.07513,52.75,31.53705,52.75,31.99994ZM12.773,31.399a30.57728,30.57728,0,0,0,3.142,1.08239,17.58645,17.58645,0,0,1,2.42041.84766c2.03809,1.01953,1.71191,2.32324,1.51709,3.10254a2.61525,2.61525,0,0,0-.10254.56836,9.38837,9.38837,0,0,0,2.666,2.376.7508.7508,0,0,1,.334.624c.00049,2.26562.31445,5.00391.78027,5.46973a5.2583,5.2583,0,0,0,1.76123,1.13671c.18262-1.32519.98682-5.35644,2.7085-5.35644a6.59966,6.59966,0,0,0,1.24658-3.1416,5.91848,5.91848,0,0,0-1.00293-.42676A4.89041,4.89041,0,0,1,25.481,35.87592c-.22657-.38672-2.209-.14258-2.86035-.06153-1.26368.15723-2.02735.25-2.38477-.38574a.98571.98571,0,0,1,.17676-1.1543c.42431-.53515.30664-1.125.062-2.0332A4.81482,4.81482,0,0,1,20.25,30.99994a2.24109,2.24109,0,0,1,1.18262-1.7832,3.31262,3.31262,0,0,1,2.8125-.47168,4.50231,4.50231,0,0,0,.54931-.42286,4.519,4.519,0,0,1,4.39893-1.24707c.69873.18946,1.18408.09278,1.44482-.28711a1.3464,1.3464,0,0,0,.168-1.05175,1.06148,1.06148,0,0,1-.85791-.64844c-.58447-1.41113,1.99805-4.09473,2.52149-4.61816a2.16114,2.16114,0,0,0,.41357-.51758,7.25533,7.25533,0,0,0-1.70752-.49707c-.47119-.10059-.9541-.20508-1.39111-.33594a1.92329,1.92329,0,0,1-1.332-.959,1.84606,1.84606,0,0,1,.30175-1.61036,3.22036,3.22036,0,0,0,.49561-1.5498c0-.26953-.52832-.88672-2.478-1.53711a19.2188,19.2188,0,0,0-10.77423,7.852c-.01147.01733-.02441.03357-.03589.05084-.21692.32727-.416.6662-.61291,1.00641-.06153.10657-.12891.20947-.18842.31726-.15777.2851-.29913.57941-.44262.87262-.0832.17041-.17243.33759-.25074.51062-.11737.25891-.21972.52515-.32574.78961-.08588.2146-.17664.42688-.25488.6449-.0882.24524-.16254.49616-.24091.74548-.0766.24408-.15668.4867-.22369.73444-.06525.24078-.11737.48608-.1734.73016-.05994.26166-.12214.52247-.17121.78748-.045.243-.07764.48962-.1134.73535-.03943.27106-.08014.54169-.108.81568-.02533.24853-.03852.49975-.0542.75048C12.78943,31.0033,12.77924,31.20074,12.773,31.399Zm33.27972,6.80212a3.3173,3.3173,0,0,1-.585-2.332,3.05154,3.05154,0,0,0-.10254-1.80664,8.78788,8.78788,0,0,1-.32324-1.23731,5.4277,5.4277,0,0,0-1.52051.10157c-1.14355.16113-2.32714.32812-3.05175-.39649A2.628,2.628,0,0,1,40,29.73724a7.2451,7.2451,0,0,0,.25-1.7373c0-1.79688,1.26758-2.43067,2.19238-2.89258a4.05378,4.05378,0,0,0,1.02735-.63769c.28027-.28028.28027-.31055.28027-.59473a4.375,4.375,0,0,1,.5791-2.21c.37573-.75745,1.25537-1.41736,3.26691-.93335A19.189,19.189,0,0,0,32,12.74994a19.50762,19.50762,0,0,0-2.70538.195,2.48344,2.48344,0,0,1,1.45538,2.055,4.58943,4.58943,0,0,1-.67188,2.25586c-.05322.09863-.11816.2207-.16357.31836a2.47694,2.47694,0,0,0,.30127.10742c.40039.12012.84277.21484,1.2749.30762,1.32422.28418,2.57471.55175,2.86573,1.53613.26855.91016-.55567,1.73437-.82618,2.00488A9.71439,9.71439,0,0,0,31.42871,24.333a1.38058,1.38058,0,0,1,.71436.71777,2.76662,2.76662,0,0,1-.41211,2.77539,2.64421,2.64421,0,0,1-2.92676.69727,3.02688,3.02688,0,0,0-3.042.94531c-.55762.4707-1.25342,1.05371-2.07129.66992a1.91173,1.91173,0,0,0-1.44678.33887c-.377.24316-.49414.46777-.49414.52246a3.94007,3.94007,0,0,0,.17285.85156,4.25463,4.25463,0,0,1,.125,2.52149c.13379-.01563.26758-.03223.38916-.04688,1.60889-.19922,3.61231-.44629,4.33985.794a3.83567,3.83567,0,0,0,1.97851,1.15136c.98047.35645,1.99463.72364,1.99463,1.72852,0,.99609-.95947,4.59473-2.64062,4.74512-.54151.4707-1.35938,3.331-1.35938,4.25488a1.10823,1.10823,0,0,1-.67822,1.06836,1.2948,1.2948,0,0,1-.502.09277,5.604,5.604,0,0,1-3.10009-1.63086c-1.03077-1.03027-1.1958-4.56738-1.2168-6.13183C20.00146,39.53119,18.25,38.11615,18.25,36.99994a3.768,3.768,0,0,1,.14746-.93164c.17139-.68555.229-.917-.73291-1.39746A17.46884,17.46884,0,0,0,15.478,33.916c-.85877-.26153-1.79413-.55059-2.67755-.89074a18.87831,18.87831,0,0,0,.31475,2.67688A19.26,19.26,0,0,0,32,51.24994a19.05068,19.05068,0,0,0,13.68652-5.739,13.04782,13.04782,0,0,1,.65235-5.33912A1.95972,1.95972,0,0,0,46.05273,38.20111ZM51.25,31.99994c0-.418-.00879-.835-.04688-1.25195a19.51871,19.51871,0,0,0-.23876-2.05457c-.00373-.02216-.00605-.04474-.00983-.06683a18.762,18.762,0,0,0-.44409-1.93311c-.011-.03876-.01972-.07831-.031-.11694a18.50148,18.50148,0,0,0-.63965-1.82129c-.02063-.05042-.03869-.10175-.05975-.152a18.78247,18.78247,0,0,0-.827-1.71362c-.02172-.04-.04205-.08057-.06408-.12036-1.69446-.749-2.97333-.92487-3.2171-.43634a2.95035,2.95035,0,0,0-.42188,1.542,2.00742,2.00742,0,0,1-.71973,1.65527,5.15657,5.15657,0,0,1-1.417.918c-.9209.46094-1.36328.71875-1.36328,1.55176a8.57592,8.57592,0,0,1-.291,2.082c-.207.877-.22363,1.09277.07129,1.3877.19532.19628,1.22559.0498,1.78125-.02832a9.78167,9.78167,0,0,1,1.33887-.124c.86816,0,1.68359.23926,1.86719,1.23731a7.11279,7.11279,0,0,0,.27344,1.042,4.46745,4.46745,0,0,1,.16015,2.49512,1.91164,1.91164,0,0,0,.39649,1.35351,3.43107,3.43107,0,0,1,.41211,3.208,13.58344,13.58344,0,0,0-.63239,3.2431l.0152-.0177c.0484-.06158.0896-.12756.13721-.18963.30517-.39814.59692-.80469.86859-1.2226.10443-.16064.19665-.32764.296-.491.19977-.3283.39569-.65863.57483-.99731.10223-.1933.195-.391.29046-.5874.15558-.32013.30536-.6427.44269-.97065.088-.2102.17041-.42254.25085-.63574q.18466-.48925.34174-.9884c.06891-.21814.13666-.43646.19775-.65711.09485-.34265.17579-.68945.25153-1.03771.04669-.21454.09717-.42792.13654-.64435.06958-.38269.11987-.76978.16626-1.15778.02221-.18616.05328-.37048.07019-.55768C51.21912,33.165,51.25,32.58453,51.25,31.99994ZM34.87823,4.39923,38.335,2.67084A.74987.74987,0,0,0,37.665,1.329l-6.00049,3c-.018.009-.02655.02832-.04358.03864a.73282.73282,0,0,0-.205.1817.702.702,0,0,0-.05792.08593.72935.72935,0,0,0-.08642.2577c-.00324.02136-.0188.03826-.02015.06-.00042.007.00422.01288.004.01984-.00036.00952-.00543.01746-.00543.027a.73788.73788,0,0,0,.07422.31451.70946.70946,0,0,0,.04169.06177.733.733,0,0,0,.18188.20667c.01477.01153.02045.03057.03619.04107l6,4a.75.75,0,0,0,.832-1.248L34.68091,5.88586A26.24516,26.24516,0,0,1,49.626,51.44427a.75012.75012,0,0,0,1.00781,1.11133A27.74469,27.74469,0,0,0,34.87823,4.39923Z" fill="#ff7d46" class="color000000 svgShape"></path>
  </g>
</svg>